<?xml version="1.0" encoding="utf-8"?>
<!-- Generator: Adobe Illustrator 27.9.0, SVG Export Plug-In . SVG Version: 6.00 Build 0)  -->
<svg version="1.1" id="Layer_1" xmlns="http://www.w3.org/2000/svg" xmlns:xlink="http://www.w3.org/1999/xlink" x="0px" y="0px"
	 viewBox="0 0 104 104" style="enable-background:new 0 0 104 104;" xml:space="preserve">
<style type="text/css">
	.st0{fill:url(#Rectangle_2_00000158737731627752362250000005537532771907989936_);}
	.st1{fill:#FFFFFF;}
</style>
<g id="Group_32" transform="translate(-0.118 0.235)">
	<g id="Group_6" transform="translate(0 0)">
		
			<linearGradient id="Rectangle_2_00000173879009862771600780000006618446376597915286_" gradientUnits="userSpaceOnUse" x1="0.118" y1="51.765" x2="104.118" y2="51.765">
			<stop  offset="8.860367e-02" style="stop-color:#8A26FF"/>
			<stop  offset="1" style="stop-color:#3F1FE4"/>
		</linearGradient>
		<path id="Rectangle_2" style="fill:url(#Rectangle_2_00000173879009862771600780000006618446376597915286_);" d="M15.1-0.2h74
			c8.3,0,15,6.7,15,15v74c0,8.3-6.7,15-15,15h-74c-8.3,0-15-6.7-15-15v-74C0.1,6.5,6.8-0.2,15.1-0.2z"/>
	</g>
</g>
<path class="st1" d="M71.5,58c2.1-3.5,3.5-7.9,3.7-12.3c0.2-2.8-0.5-5.8-1.8-8.5c-2.1-4.4-5.8-6.8-9.3-9.2c-2.6-1.8-5.1-3.4-6.9-5.8
	l-0.3-0.4c-1-1.4-2.2-3-2.4-4.3c-0.2-1.3-1.4-2.3-2.7-2.2c-1.4,0.1-2.4,1.2-2.4,2.6v46.1c-2.2-1.3-4.8-2.1-7.8-2.1
	c-7.1,0-12.9,4.6-12.9,10.3s5.8,10.3,12.9,10.3s12.9-4.6,12.9-10.3V42c3.9,1.5,10.2,5.3,12,14.1c-0.3,0.5-0.6,1-1,1.4
	c-0.9,1.1-0.8,2.7,0.2,3.6c1.1,1,2.7,0.8,3.6-0.2c0.7-0.8,1.3-1.7,1.9-2.7C71.4,58.1,71.5,58,71.5,58L71.5,58z"/>
</svg>
