<?xml version="1.0" encoding="UTF-8"?>
<svg width="372px" height="330px" viewBox="0 0 372 330" version="1.1" xmlns="http://www.w3.org/2000/svg" xmlns:xlink="http://www.w3.org/1999/xlink">
    <title>payments-img</title>
    <defs>
        <path d="M268.995,-2.84217094e-14 C277.835,-2.84217094e-14 285,7.15861413 285,15.9885039 L285,110.011496 C285,118.842385 277.835,126 268.995,126 L16.005,126 C7.166,126 0,118.842385 0,110.011496 L0,15.9885039 C0,7.15861413 7.166,-2.84217094e-14 16.005,-2.84217094e-14 L268.995,-2.84217094e-14 Z" id="path-1"></path>
        <filter x="-3.7%" y="-8.3%" width="109.5%" height="121.4%" filterUnits="objectBoundingBox" id="filter-2">
            <feOffset dx="3" dy="3" in="SourceAlpha" result="shadowOffsetOuter1"></feOffset>
            <feGaussianBlur stdDeviation="4" in="shadowOffsetOuter1" result="shadowBlurOuter1"></feGaussianBlur>
            <feColorMatrix values="0 0 0 0 0.596078431   0 0 0 0 0.592156863   0 0 0 0 0.678431373  0 0 0 0.4 0" type="matrix" in="shadowBlurOuter1"></feColorMatrix>
        </filter>
        <path d="M3.621,0 L198.379,0 C200.379,0 202,1.60191999 202,3.57837895 L202,52.421621 C202,54.39808 200.379,56 198.379,56 L3.621,56 C1.621,56 0,54.39808 0,52.421621 L0,3.57837895 C0,1.60191999 1.621,0 3.621,0" id="path-3"></path>
        <filter x="-5.2%" y="-18.8%" width="113.4%" height="148.2%" filterUnits="objectBoundingBox" id="filter-4">
            <feOffset dx="3" dy="3" in="SourceAlpha" result="shadowOffsetOuter1"></feOffset>
            <feGaussianBlur stdDeviation="4" in="shadowOffsetOuter1" result="shadowBlurOuter1"></feGaussianBlur>
            <feColorMatrix values="0 0 0 0 0.596078431   0 0 0 0 0.592156863   0 0 0 0 0.678431373  0 0 0 0.4 0" type="matrix" in="shadowBlurOuter1"></feColorMatrix>
        </filter>
        <path d="M152.814,0 C155.125,0 156.999,1.87217038 156.999,4.18191313 L156.999,39.8170878 C156.999,42.1278296 155.125,44 152.814,44 L4.186,44 C1.873,44 -1.13686838e-13,42.1278296 -1.13686838e-13,39.8170878 L-1.13686838e-13,4.18191313 C-1.13686838e-13,1.87217038 1.873,0 4.186,0 L152.814,0 Z" id="path-5"></path>
        <filter x="-6.7%" y="-23.9%" width="117.2%" height="161.4%" filterUnits="objectBoundingBox" id="filter-6">
            <feOffset dx="3" dy="3" in="SourceAlpha" result="shadowOffsetOuter1"></feOffset>
            <feGaussianBlur stdDeviation="4" in="shadowOffsetOuter1" result="shadowBlurOuter1"></feGaussianBlur>
            <feColorMatrix values="0 0 0 0 0.596078431   0 0 0 0 0.592156863   0 0 0 0 0.678431373  0 0 0 0.4 0" type="matrix" in="shadowBlurOuter1"></feColorMatrix>
        </filter>
        <linearGradient x1="59.4585792%" y1="85.8678624%" x2="85.1774738%" y2="135.76687%" id="linearGradient-7">
            <stop stop-color="#1177CD" offset="0%"></stop>
            <stop stop-color="#1497E2" offset="100%"></stop>
        </linearGradient>
        <path d="M10.4824647,0 L53.5175353,0 C59.307362,0 64,4.69364089 64,10.4824647 L64,53.5175353 C64,59.307362 59.307362,64 53.5175353,64 L10.4824647,64 C4.69364089,64 0,59.307362 0,53.5175353 L0,10.4824647 C0,4.69364089 4.69364089,0 10.4824647,0" id="path-8"></path>
        <filter x="-16.4%" y="-16.4%" width="142.2%" height="142.2%" filterUnits="objectBoundingBox" id="filter-9">
            <feOffset dx="3" dy="3" in="SourceAlpha" result="shadowOffsetOuter1"></feOffset>
            <feGaussianBlur stdDeviation="4" in="shadowOffsetOuter1" result="shadowBlurOuter1"></feGaussianBlur>
            <feColorMatrix values="0 0 0 0 0.596078431   0 0 0 0 0.592156863   0 0 0 0 0.678431373  0 0 0 0.4 0" type="matrix" in="shadowBlurOuter1"></feColorMatrix>
        </filter>
    </defs>
    <g id="Page-1" stroke="none" stroke-width="1" fill="none" fill-rule="evenodd">
        <g id="Desktop-Publishing-1920" transform="translate(-780.000000, -1340.000000)">
            <g id="Earn-more" transform="translate(220.000000, 1190.000000)">
                <g id="payments-img" transform="translate(560.000000, 150.000000)">
                    <path d="M329.999,165 C329.999,256.127519 256.126,330 165,330 C73.873,330 0,256.127519 0,165 C0,73.8724813 73.873,0 165,0 C256.126,0 329.999,73.8724813 329.999,165 Z" id="Ellipse" fill="#F6F7FF"></path>
                    <g id="Royalties" transform="translate(22.000000, 177.000000)">
                        <g id="Backer">
                            <use fill="black" fill-opacity="1" filter="url(#filter-2)" xlink:href="#path-1"></use>
                            <use fill="#FEFEFE" fill-rule="evenodd" xlink:href="#path-1"></use>
                        </g>
                        <g id="EQ" transform="translate(18.999900, 40.440300)">
                            <path d="M247.5387,75.6124 C248.3117,75.6424 248.9647,75.0444 248.9997,74.2704 L248.9997,53.5354 C248.9337,52.7274 248.2257,52.1284 247.4177,52.1954 C246.7037,52.2544 246.1377,52.8204 246.0777,53.5354 L246.0777,74.2704 C246.1127,75.0444 246.7667,75.6434 247.5387,75.6124" id="Fill-50" fill="#626AFA"></path>
                            <path d="M242.1999,75.6124 C242.9729,75.6434 243.6269,75.0444 243.6609,74.2704 L243.6609,35.6454 C243.5949,34.8394 242.8869,34.2394 242.0789,34.3054 C241.3649,34.3654 240.7989,34.9314 240.7389,35.6454 L240.7389,74.2704 C240.7739,75.0444 241.4269,75.6434 242.1999,75.6124" id="Fill-52" fill="#626AFA"></path>
                            <path d="M236.8649,75.6124 C237.6379,75.6434 238.2919,75.0444 238.3259,74.2704 L238.3259,31.1714 C238.2599,30.3644 237.5509,29.7634 236.7439,29.8314 C236.0299,29.8894 235.4639,30.4574 235.4039,31.1714 L235.4039,74.2704 C235.4389,75.0444 236.0929,75.6424 236.8649,75.6124" id="Fill-54" fill="#626AFA"></path>
                            <path d="M231.528,75.6124 C232.301,75.6434 232.955,75.0444 232.99,74.2704 L232.99,11.1994 C232.92,10.3914 232.209,9.7944 231.401,9.8644 C230.692,9.9254 230.129,10.4894 230.067,11.1994 L230.067,74.2704 C230.102,75.0444 230.755,75.6424 231.528,75.6124" id="Fill-56" fill="#626AFA"></path>
                            <path d="M226.192,75.6124 C226.965,75.6424 227.618,75.0444 227.653,74.2704 L227.653,1.9564 C227.583,1.1484 226.872,0.5504 226.064,0.6214 C225.354,0.6834 224.792,1.2464 224.73,1.9564 L224.73,74.2704 C224.765,75.0444 225.419,75.6434 226.192,75.6124" id="Fill-58" fill="#26EAFD"></path>
                            <path d="M220.8551,75.6124 C221.6281,75.6434 222.2811,75.0444 222.3161,74.2704 L222.3161,7.6224 C222.2491,6.8154 221.5411,6.2154 220.7341,6.2824 C220.0201,6.3414 219.4531,6.9084 219.3941,7.6224 L219.3941,74.2704 C219.4281,75.0444 220.0821,75.6434 220.8551,75.6124" id="Fill-60" fill="#626AFA"></path>
                            <path d="M215.5182,75.6124 C216.2912,75.6434 216.9442,75.0444 216.9792,74.2704 L216.9792,23.7204 C216.9122,22.9144 216.2042,22.3144 215.3972,22.3814 C214.6832,22.4404 214.1162,23.0074 214.0572,23.7204 L214.0572,74.2704 C214.0922,75.0444 214.7452,75.6424 215.5182,75.6124" id="Fill-62" fill="#626AFA"></path>
                            <path d="M210.1823,75.6124 C210.9543,75.6434 211.6083,75.0444 211.6433,74.2704 L211.6433,39.7904 C211.5763,38.9834 210.8683,38.3834 210.0613,38.4504 C209.3473,38.5084 208.7803,39.0764 208.7213,39.7904 L208.7213,74.2694 C208.7553,75.0434 209.4093,75.6424 210.1823,75.6124" id="Fill-64" fill="#626AFA"></path>
                            <path d="M204.8464,75.6124 C205.6184,75.6424 206.2724,75.0444 206.3074,74.2704 L206.3074,55.3234 C206.2374,54.5154 205.5264,53.9184 204.7184,53.9884 C204.0084,54.0504 203.4464,54.6134 203.3844,55.3234 L203.3844,74.2704 C203.4194,75.0444 204.0734,75.6434 204.8464,75.6124" id="Fill-66" fill="#626AFA"></path>
                            <path d="M199.5094,75.6124 C200.2814,75.6424 200.9354,75.0444 200.9704,74.2704 L200.9704,50.8894 C200.9034,50.0834 200.1954,49.4834 199.3884,49.5504 C198.6734,49.6094 198.1074,50.1754 198.0474,50.8894 L198.0474,74.2754 C198.0854,75.0474 198.7384,75.6434 199.5094,75.6124" id="Fill-68" fill="#626AFA"></path>
                            <path d="M194.1716,75.6124 C194.9446,75.6434 195.5986,75.0444 195.6336,74.2704 L195.6336,42.7354 C195.5666,41.9274 194.8586,41.3284 194.0516,41.3944 C193.3366,41.4544 192.7706,42.0204 192.7106,42.7354 L192.7106,74.2704 C192.7456,75.0444 193.3996,75.6434 194.1716,75.6124" id="Fill-70" fill="#626AFA"></path>
                            <path d="M188.8346,75.6124 C189.6076,75.6434 190.2616,75.0444 190.2956,74.2704 L190.2956,28.1894 C190.2296,27.3834 189.5216,26.7834 188.7146,26.8494 C187.9996,26.9094 187.4336,27.4754 187.3736,28.1894 L187.3736,74.2664 C187.4066,75.0414 188.0606,75.6424 188.8346,75.6124" id="Fill-72" fill="#26EAFD"></path>
                            <path d="M183.4997,75.6124 C184.2727,75.6424 184.9257,75.0444 184.9607,74.2704 L184.9607,48.5284 C184.8917,47.7204 184.1797,47.1234 183.3727,47.1934 C182.6627,47.2554 182.0997,47.8184 182.0377,48.5284 L182.0377,74.2704 C182.0727,75.0444 182.7267,75.6434 183.4997,75.6124" id="Fill-74" fill="#626AFA"></path>
                            <path d="M178.1618,75.6124 C178.9348,75.6424 179.5878,75.0444 179.6228,74.2704 L179.6228,40.9464 C179.5568,40.1384 178.8488,39.5394 178.0408,39.6054 C177.3268,39.6654 176.7608,40.2314 176.7008,40.9464 L176.7008,74.2704 C176.7358,75.0444 177.3888,75.6434 178.1618,75.6124" id="Fill-76" fill="#626AFA"></path>
                            <path d="M172.8259,75.6124 C173.5989,75.6434 174.2529,75.0444 174.2869,74.2704 L174.2869,48.5284 C174.2209,47.7204 173.5129,47.1214 172.7049,47.1874 C171.9909,47.2474 171.4249,47.8134 171.3649,48.5284 L171.3649,74.2704 C171.3999,75.0444 172.0529,75.6434 172.8259,75.6124" id="Fill-78" fill="#626AFA"></path>
                            <path d="M167.4889,75.6124 C168.2619,75.6434 168.9159,75.0444 168.9499,74.2704 L168.9499,59.7964 C168.8839,58.9894 168.1749,58.3884 167.3679,58.4564 C166.6539,58.5144 166.0879,59.0824 166.0279,59.7964 L166.0279,74.2704 C166.0619,75.0444 166.7159,75.6434 167.4889,75.6124" id="Fill-80" fill="#626AFA"></path>
                            <path d="M162.152,75.6124 C162.925,75.6434 163.578,75.0444 163.613,74.2704 L163.613,48.5284 C163.546,47.7204 162.838,47.1214 162.031,47.1874 C161.317,47.2474 160.75,47.8134 160.691,48.5284 L160.691,74.2704 C160.726,75.0444 161.379,75.6424 162.152,75.6124" id="Fill-82" fill="#626AFA"></path>
                            <path d="M156.8161,75.6124 C157.5891,75.6424 158.2421,75.0444 158.2771,74.2704 L158.2771,42.7354 C158.2071,41.9274 157.4961,41.3304 156.6891,41.4004 C155.9791,41.4624 155.4161,42.0254 155.3541,42.7354 L155.3541,74.2704 C155.3891,75.0444 156.0431,75.6434 156.8161,75.6124" id="Fill-84" fill="#626AFA"></path>
                            <path d="M151.4792,75.6124 C152.2522,75.6434 152.9052,75.0444 152.9402,74.2704 L152.9402,48.5284 C152.8732,47.7204 152.1652,47.1214 151.3582,47.1874 C150.6442,47.2474 150.0772,47.8134 150.0182,48.5284 L150.0182,74.2704 C150.0522,75.0444 150.7062,75.6434 151.4792,75.6124" id="Fill-86" fill="#626AFA"></path>
                            <path d="M146.1423,75.6124 C146.9153,75.6434 147.5683,75.0444 147.6033,74.2704 L147.6033,28.1894 C147.5363,27.3834 146.8283,26.7834 146.0213,26.8494 C145.3073,26.9094 144.7403,27.4754 144.6813,28.1894 L144.6813,74.2664 C144.7133,75.0424 145.3673,75.6434 146.1423,75.6124" id="Fill-88" fill="#626AFA"></path>
                            <path d="M140.8058,75.6124 C141.5788,75.6434 142.2328,75.0444 142.2668,74.2704 L142.2668,24.9134 C142.2008,24.1064 141.4918,23.5064 140.6848,23.5734 C139.9708,23.6324 139.4038,24.1984 139.3448,24.9134 L139.3448,74.2704 C139.3798,75.0444 140.0328,75.6434 140.8058,75.6124" id="Fill-90" fill="#626AFA"></path>
                            <path d="M135.4689,75.6124 C136.2419,75.6434 136.8959,75.0444 136.9309,74.2704 L136.9309,18.9514 C136.8609,18.1434 136.1499,17.5464 135.3429,17.6164 C134.6329,17.6774 134.0699,18.2414 134.0079,18.9514 L134.0079,74.2704 C134.0429,75.0444 134.6959,75.6424 135.4689,75.6124" id="Fill-92" fill="#626AFA"></path>
                            <path d="M130.133,75.6124 C130.906,75.6424 131.559,75.0444 131.594,74.2704 L131.594,11.1994 C131.527,10.3914 130.819,9.7924 130.012,9.8584 C129.298,9.9184 128.731,10.4844 128.672,11.1994 L128.672,74.2704 C128.707,75.0444 129.36,75.6434 130.133,75.6124" id="Fill-94" fill="#26EAFD"></path>
                            <path d="M124.8,75.6124 C125.573,75.6434 126.226,75.0444 126.261,74.2704 L126.261,14.7774 C126.194,13.9694 125.486,13.3704 124.679,13.4364 C123.965,13.4964 123.398,14.0624 123.339,14.7774 L123.339,74.2704 C123.374,75.0444 124.027,75.6434 124.8,75.6124" id="Fill-96" fill="#626AFA"></path>
                            <path d="M119.4592,75.6124 C120.2322,75.6434 120.8852,75.0444 120.9202,74.2704 L120.9202,11.1994 C120.8532,10.3914 120.1452,9.7924 119.3382,9.8584 C118.6242,9.9184 118.0572,10.4844 117.9982,11.1994 L117.9982,74.2704 C118.0322,75.0444 118.6862,75.6434 119.4592,75.6124" id="Fill-98" fill="#626AFA"></path>
                            <path d="M114.1222,75.6124 C114.8952,75.6434 115.5492,75.0444 115.5842,74.2704 L115.5842,7.6224 C115.5142,6.8144 114.8022,6.2164 113.9952,6.2874 C113.2862,6.3494 112.7232,6.9124 112.6612,7.6224 L112.6612,74.2704 C112.6962,75.0444 113.3492,75.6424 114.1222,75.6124" id="Fill-100" fill="#26EAFD"></path>
                            <path d="M108.7858,75.6124 C109.5588,75.6424 110.2118,75.0444 110.2468,74.2704 L110.2468,14.7774 C110.1768,13.9694 109.4658,13.3724 108.6588,13.4424 C107.9488,13.5044 107.3858,14.0674 107.3238,14.7774 L107.3238,74.2704 C107.3588,75.0444 108.0128,75.6434 108.7858,75.6124" id="Fill-102" fill="#626AFA"></path>
                            <path d="M103.4489,75.6124 C104.2219,75.6424 104.8749,75.0444 104.9099,74.2704 L104.9099,35.6454 C104.8429,34.8394 104.1349,34.2394 103.3279,34.3054 C102.6139,34.3654 102.0469,34.9314 101.9879,35.6454 L101.9879,74.2704 C102.0229,75.0444 102.6759,75.6434 103.4489,75.6124" id="Fill-104" fill="#626AFA"></path>
                            <path d="M98.112,75.6124 C98.885,75.6434 99.538,75.0444 99.573,74.2704 L99.573,22.5284 C99.506,21.7204 98.798,21.1214 97.991,21.1874 C97.277,21.2474 96.71,21.8134 96.651,22.5284 L96.651,74.2704 C96.686,75.0444 97.339,75.6434 98.112,75.6124" id="Fill-106" fill="#626AFA"></path>
                            <path d="M92.7751,75.6124 C93.5481,75.6434 94.2021,75.0444 94.2371,74.2704 L94.2371,28.1894 C94.1671,27.3834 93.4561,26.7854 92.6491,26.8554 C91.9391,26.9174 91.3761,27.4804 91.3141,28.1894 L91.3141,74.2664 C91.3471,75.0414 92.0011,75.6424 92.7751,75.6124" id="Fill-108" fill="#626AFA"></path>
                            <path d="M87.4401,75.6124 C88.2131,75.6434 88.8671,75.0444 88.9021,74.2704 L88.9021,42.7354 C88.8321,41.9274 88.1211,41.3304 87.3141,41.4004 C86.6041,41.4624 86.0411,42.0254 85.9791,42.7354 L85.9791,74.2704 C86.0141,75.0444 86.6671,75.6424 87.4401,75.6124" id="Fill-110" fill="#626AFA"></path>
                            <path d="M82.0998,75.6124 C82.8728,75.6424 83.5258,75.0444 83.5608,74.2704 L83.5608,57.0304 C83.4908,56.2224 82.7798,55.6254 81.9728,55.6954 C81.2628,55.7574 80.6998,56.3204 80.6378,57.0304 L80.6378,74.2704 C80.6728,75.0444 81.3268,75.6434 82.0998,75.6124" id="Fill-112" fill="#626AFA"></path>
                            <path d="M76.7673,75.6124 C77.5403,75.6434 78.1933,75.0444 78.2283,74.2704 L78.2283,65.6504 C78.1613,64.8434 77.4533,64.2444 76.6463,64.3104 C75.9323,64.3704 75.3653,64.9364 75.3063,65.6504 L75.3063,74.2704 C75.3403,75.0444 75.9943,75.6434 76.7673,75.6124" id="Fill-114" fill="#626AFA"></path>
                            <path d="M71.4299,75.6124 C72.2029,75.6434 72.8569,75.0444 72.8909,74.2704 L72.8909,44.5234 C72.8249,43.7164 72.1159,43.1174 71.3089,43.1834 C70.5949,43.2434 70.0279,43.8094 69.9689,44.5234 L69.9689,74.2704 C70.0039,75.0444 70.6569,75.6434 71.4299,75.6124" id="Fill-116" fill="#626AFA"></path>
                            <path d="M66.0929,75.6124 C66.8659,75.6434 67.5189,75.0444 67.5539,74.2704 L67.5539,38.9264 C67.4869,38.1204 66.7789,37.5204 65.9719,37.5874 C65.2579,37.6464 64.6909,38.2134 64.6319,38.9264 L64.6319,74.2704 C64.6669,75.0444 65.3199,75.6424 66.0929,75.6124" id="Fill-118" fill="#626AFA"></path>
                            <path d="M60.757,75.6124 C61.53,75.6424 62.183,75.0444 62.218,74.2704 L62.218,35.6454 C62.148,34.8394 61.437,34.2414 60.63,34.3114 C59.92,34.3734 59.357,34.9354 59.295,35.6454 L59.295,74.2704 C59.33,75.0444 59.984,75.6434 60.757,75.6124" id="Fill-120" fill="#26EAFD"></path>
                            <path d="M55.4201,75.6124 C56.1931,75.6434 56.8461,75.0444 56.8811,74.2704 L56.8811,44.5234 C56.8141,43.7164 56.1061,43.1174 55.2991,43.1834 C54.5851,43.2434 54.0181,43.8094 53.9591,44.5234 L53.9591,74.2704 C53.9941,75.0444 54.6471,75.6434 55.4201,75.6124" id="Fill-122" fill="#626AFA"></path>
                            <path d="M50.0832,75.6124 C50.8562,75.6434 51.5092,75.0444 51.5442,74.2704 L51.5442,46.6124 C51.4772,45.8044 50.7692,45.2054 49.9622,45.2714 C49.2482,45.3314 48.6812,45.8974 48.6222,46.6124 L48.6222,74.2704 C48.6562,75.0444 49.3102,75.6434 50.0832,75.6124" id="Fill-124" fill="#626AFA"></path>
                            <path d="M44.7458,75.6124 C45.5188,75.6434 46.1728,75.0444 46.2068,74.2704 L46.2068,42.7354 C46.1408,41.9274 45.4318,41.3284 44.6248,41.3944 C43.9108,41.4544 43.3438,42.0204 43.2848,42.7354 L43.2848,74.2704 C43.3198,75.0444 43.9728,75.6434 44.7458,75.6124" id="Fill-126" fill="#626AFA"></path>
                            <path d="M39.4098,75.6124 C40.1828,75.6424 40.8358,75.0444 40.8708,74.2704 L40.8708,39.7904 C40.8008,38.9824 40.0898,38.3854 39.2828,38.4554 C38.5728,38.5174 38.0098,39.0804 37.9478,39.7904 L37.9478,74.2694 C37.9828,75.0444 38.6368,75.6434 39.4098,75.6124" id="Fill-128" fill="#26EAFD"></path>
                            <path d="M34.0729,75.6124 C34.8459,75.6434 35.4989,75.0444 35.5339,74.2704 L35.5339,44.5234 C35.4669,43.7164 34.7589,43.1174 33.9519,43.1834 C33.2379,43.2434 32.6709,43.8094 32.6119,44.5234 L32.6119,74.2704 C32.6469,75.0444 33.2999,75.6434 34.0729,75.6124" id="Fill-130" fill="#626AFA"></path>
                            <path d="M28.736,75.6124 C29.509,75.6434 30.162,75.0444 30.197,74.2704 L30.197,48.5284 C30.13,47.7204 29.422,47.1214 28.615,47.1874 C27.901,47.2474 27.334,47.8134 27.275,48.5284 L27.275,74.2704 C27.31,75.0444 27.963,75.6434 28.736,75.6124" id="Fill-132" fill="#626AFA"></path>
                            <path d="M23.4001,75.6124 C24.1731,75.6434 24.8261,75.0444 24.8611,74.2704 L24.8611,57.0304 C24.7941,56.2224 24.0861,55.6234 23.2791,55.6894 C22.5651,55.7494 21.9981,56.3154 21.9391,57.0304 L21.9391,74.2704 C21.9741,75.0444 22.6271,75.6434 23.4001,75.6124" id="Fill-134" fill="#626AFA"></path>
                            <path d="M18.0641,75.6124 C18.8371,75.6434 19.4911,75.0444 19.5261,74.2704 L19.5261,52.7214 C19.4561,51.9154 18.7451,51.3174 17.9381,51.3874 C17.2281,51.4494 16.6651,52.0114 16.6031,52.7214 L16.6031,74.2704 C16.6381,75.0444 17.2911,75.6424 18.0641,75.6124" id="Fill-136" fill="#626AFA"></path>
                            <path d="M12.7272,75.6124 C13.5002,75.6434 14.1542,75.0444 14.1892,74.2704 L14.1892,59.7964 C14.1192,58.9884 13.4072,58.3914 12.6002,58.4624 C11.8912,58.5234 11.3282,59.0864 11.2662,59.7964 L11.2662,74.2704 C11.3012,75.0444 11.9542,75.6424 12.7272,75.6124" id="Fill-138" fill="#626AFA"></path>
                            <path d="M7.3908,75.6124 C8.1638,75.6424 8.8168,75.0444 8.8518,74.2704 L8.8518,49.6624 C8.7858,48.8544 8.0768,48.2554 7.2698,48.3224 C6.5558,48.3814 5.9888,48.9474 5.9298,49.6624 L5.9298,74.2704 C5.9648,75.0444 6.6178,75.6434 7.3908,75.6124" id="Fill-140" fill="#26EAFD"></path>
                            <path d="M2.0539,75.6124 C2.8269,75.6434 3.4809,75.0444 3.5149,74.2704 L3.5149,61.2184 C3.4489,60.4124 2.7399,59.8124 1.9329,59.8794 C1.2189,59.9384 0.6519,60.5054 0.5929,61.2184 L0.5929,74.2704 C0.6279,75.0444 1.2809,75.6434 2.0539,75.6124" id="Fill-142" fill="#626AFA"></path>
                        </g>
                        <path d="M24.978,24.4060084 L24.978,21.9360084 L27.368,17.3460084 L25.778,17.3460084 L24.278,20.4360084 L22.778,17.3460084 L21.158,17.3460084 L23.558,21.9360084 L23.558,24.4060084 L24.978,24.4060084 Z M30.688,24.4760084 C31.228,24.4760084 31.713,24.3610084 32.143,24.1310084 C32.573,23.9010084 32.9113333,23.5726751 33.158,23.1460084 C33.4046667,22.7193418 33.528,22.2160084 33.528,21.6360084 C33.528,21.0560084 33.4046667,20.5510084 33.158,20.1210084 C32.9113333,19.6910084 32.573,19.3626751 32.143,19.1360084 C31.713,18.9093418 31.228,18.7960084 30.688,18.7960084 C30.148,18.7960084 29.663,18.9093418 29.233,19.1360084 C28.803,19.3626751 28.4646667,19.6910084 28.218,20.1210084 C27.9713333,20.5510084 27.848,21.0560084 27.848,21.6360084 C27.848,22.2160084 27.9713333,22.7193418 28.218,23.1460084 C28.4646667,23.5726751 28.803,23.9010084 29.233,24.1310084 C29.663,24.3610084 30.148,24.4760084 30.688,24.4760084 Z M30.688,23.2560084 C30.2946667,23.2560084 29.9613333,23.1176751 29.688,22.8410084 C29.4146667,22.5643418 29.278,22.1626751 29.278,21.6360084 C29.278,21.1093418 29.4146667,20.7076751 29.688,20.4310084 C29.9613333,20.1543418 30.2946667,20.0160084 30.688,20.0160084 C31.0813333,20.0160084 31.4146667,20.1543418 31.688,20.4310084 C31.9613333,20.7076751 32.098,21.1093418 32.098,21.6360084 C32.098,22.1626751 31.9613333,22.5643418 31.688,22.8410084 C31.4146667,23.1176751 31.0813333,23.2560084 30.688,23.2560084 Z M38.418,23.2870084 L38.418,24.4060084 L39.828,24.4060084 L39.828,18.8660084 L38.418,18.8660084 L38.418,21.8060084 C38.418,22.2926751 38.298,22.6660084 38.058,22.9260084 C37.818,23.1860084 37.4946667,23.3160084 37.088,23.3160084 C36.7013333,23.3160084 36.3946667,23.1943418 36.168,22.9510084 C35.9413333,22.7076751 35.828,22.3660084 35.828,21.9260084 L35.828,21.9260084 L35.828,18.8660084 L34.428,18.8660084 L34.428,22.0860084 C34.428,22.8393418 34.618,23.4260084 34.998,23.8460084 C35.378,24.2660084 35.888,24.4760084 36.528,24.4760084 C36.968,24.4760084 37.3563333,24.3710084 37.693,24.1610084 C38.0296667,23.9510084 38.2713333,23.6593418 38.418,23.2860084 L38.418,23.2870084 Z M42.518,24.4060084 L42.518,21.7360084 C42.518,20.7760084 43.0346667,20.2960084 44.068,20.2960084 L44.068,20.2960084 L44.478,20.2960084 L44.478,18.7860084 C44.058,18.7860084 43.678,18.8876751 43.338,19.0910084 C42.998,19.2943418 42.7246667,19.5726751 42.518,19.9260084 L42.518,19.9260084 L42.518,18.8660084 L41.108,18.8660084 L41.108,24.4060084 L42.518,24.4060084 Z M48.848,24.4060084 L48.848,21.6560084 L49.468,21.6560084 L51.118,24.4060084 L52.678,24.4060084 L50.918,21.5860084 C51.478,21.4660084 51.9063333,21.2260084 52.203,20.8660084 C52.4996667,20.5060084 52.648,20.0593418 52.648,19.5260084 C52.648,18.8726751 52.433,18.3460084 52.003,17.9460084 C51.573,17.5460084 50.948,17.3460084 50.128,17.3460084 L50.128,17.3460084 L47.438,17.3460084 L47.438,24.4060084 L48.848,24.4060084 Z M50.008,20.6860084 L48.848,20.6860084 L48.848,18.5360084 L50.008,18.5360084 C50.4213333,18.5360084 50.7263333,18.6310084 50.923,18.8210084 C51.1196667,19.0110084 51.218,19.2760084 51.218,19.6160084 C51.218,20.3293418 50.8146667,20.6860084 50.008,20.6860084 L50.008,20.6860084 Z M56.158,24.4760084 C56.698,24.4760084 57.183,24.3610084 57.613,24.1310084 C58.043,23.9010084 58.3813333,23.5726751 58.628,23.1460084 C58.8746667,22.7193418 58.998,22.2160084 58.998,21.6360084 C58.998,21.0560084 58.8746667,20.5510084 58.628,20.1210084 C58.3813333,19.6910084 58.043,19.3626751 57.613,19.1360084 C57.183,18.9093418 56.698,18.7960084 56.158,18.7960084 C55.618,18.7960084 55.133,18.9093418 54.703,19.1360084 C54.273,19.3626751 53.9346667,19.6910084 53.688,20.1210084 C53.4413333,20.5510084 53.318,21.0560084 53.318,21.6360084 C53.318,22.2160084 53.4413333,22.7193418 53.688,23.1460084 C53.9346667,23.5726751 54.273,23.9010084 54.703,24.1310084 C55.133,24.3610084 55.618,24.4760084 56.158,24.4760084 Z M56.158,23.2560084 C55.7646667,23.2560084 55.4313333,23.1176751 55.158,22.8410084 C54.8846667,22.5643418 54.748,22.1626751 54.748,21.6360084 C54.748,21.1093418 54.8846667,20.7076751 55.158,20.4310084 C55.4313333,20.1543418 55.7646667,20.0160084 56.158,20.0160084 C56.5513333,20.0160084 56.8846667,20.1543418 57.158,20.4310084 C57.4313333,20.7076751 57.568,21.1093418 57.568,21.6360084 C57.568,22.1626751 57.4313333,22.5643418 57.158,22.8410084 C56.8846667,23.1176751 56.5513333,23.2560084 56.158,23.2560084 Z M62.018,27.0460084 L65.408,18.8660084 L63.858,18.8660084 L62.458,22.6260084 L60.948,18.8660084 L59.378,18.8660084 L61.708,24.2460084 L60.458,27.0460084 L62.018,27.0460084 Z M68.238,24.4760084 C68.7046667,24.4760084 69.1046667,24.3643418 69.438,24.1410084 C69.7713333,23.9176751 70.008,23.6193418 70.148,23.2460084 L70.148,23.2460084 L70.148,24.4060084 L71.548,24.4060084 L71.548,18.8660084 L70.148,18.8660084 L70.148,20.0160084 C70.008,19.6426751 69.7713333,19.3460084 69.438,19.1260084 C69.1046667,18.9060084 68.7046667,18.7960084 68.238,18.7960084 C67.7713333,18.7960084 67.3513333,18.9093418 66.978,19.1360084 C66.6046667,19.3626751 66.313,19.6910084 66.103,20.1210084 C65.893,20.5510084 65.788,21.0560084 65.788,21.6360084 C65.788,22.2160084 65.893,22.7210084 66.103,23.1510084 C66.313,23.5810084 66.6046667,23.9093418 66.978,24.1360084 C67.3513333,24.3626751 67.7713333,24.4760084 68.238,24.4760084 Z M68.678,23.2360084 C68.238,23.2360084 67.8846667,23.0943418 67.618,22.8110084 C67.3513333,22.5276751 67.218,22.1360084 67.218,21.6360084 C67.218,21.1360084 67.3513333,20.7426751 67.618,20.4560084 C67.8846667,20.1693418 68.238,20.0260084 68.678,20.0260084 C69.1046667,20.0260084 69.4563333,20.1710084 69.733,20.4610084 C70.0096667,20.7510084 70.148,21.1426751 70.148,21.6360084 C70.148,22.1226751 70.0096667,22.5110084 69.733,22.8010084 C69.4563333,23.0910084 69.1046667,23.2360084 68.678,23.2360084 Z M74.238,24.4060084 L74.238,17.0060084 L72.828,17.0060084 L72.828,24.4060084 L74.238,24.4060084 Z M78.478,24.4060084 L78.478,23.1960084 L77.928,23.1960084 C77.6746667,23.1960084 77.4946667,23.1426751 77.388,23.0360084 C77.2813333,22.9293418 77.228,22.7426751 77.228,22.4760084 L77.228,22.4760084 L77.228,20.0560084 L78.468,20.0560084 L78.468,18.8660084 L77.228,18.8660084 L77.228,17.4960084 L75.818,17.4960084 L75.818,18.8660084 L75.048,18.8660084 L75.048,20.0560084 L75.818,20.0560084 L75.818,22.4560084 C75.818,23.1560084 75.983,23.6560084 76.313,23.9560084 C76.643,24.2560084 77.118,24.4060084 77.738,24.4060084 L77.738,24.4060084 L78.478,24.4060084 Z M80.198,18.0360084 C80.458,18.0360084 80.668,17.9643418 80.828,17.8210084 C80.988,17.6776751 81.068,17.4960084 81.068,17.2760084 C81.068,17.0493418 80.988,16.8643418 80.828,16.7210084 C80.668,16.5776751 80.458,16.5060084 80.198,16.5060084 C79.938,16.5060084 79.728,16.5776751 79.568,16.7210084 C79.408,16.8643418 79.328,17.0493418 79.328,17.2760084 C79.328,17.4960084 79.408,17.6776751 79.568,17.8210084 C79.728,17.9643418 79.938,18.0360084 80.198,18.0360084 Z M80.898,24.4060084 L80.898,18.8660084 L79.488,18.8660084 L79.488,24.4060084 L80.898,24.4060084 Z M84.668,24.4760084 C85.128,24.4760084 85.5463333,24.3893418 85.923,24.2160084 C86.2996667,24.0426751 86.608,23.8026751 86.848,23.4960084 C87.088,23.1893418 87.2446667,22.8426751 87.318,22.4560084 L87.318,22.4560084 L85.828,22.4560084 C85.768,22.7293418 85.6296667,22.9460084 85.413,23.1060084 C85.1963333,23.2660084 84.9246667,23.3460084 84.598,23.3460084 C84.2313333,23.3460084 83.9246667,23.2293418 83.678,22.9960084 C83.4313333,22.7626751 83.298,22.3993418 83.278,21.9060084 L83.278,21.9060084 L87.338,21.9060084 C87.3713333,21.7260084 87.388,21.5660084 87.388,21.4260084 C87.388,20.9193418 87.2763333,20.4676751 87.053,20.0710084 C86.8296667,19.6743418 86.513,19.3626751 86.103,19.1360084 C85.693,18.9093418 85.2146667,18.7960084 84.668,18.7960084 C84.128,18.7960084 83.648,18.9093418 83.228,19.1360084 C82.808,19.3626751 82.4813333,19.6910084 82.248,20.1210084 C82.0146667,20.5510084 81.898,21.0560084 81.898,21.6360084 C81.898,22.2160084 82.0146667,22.7193418 82.248,23.1460084 C82.4813333,23.5726751 82.808,23.9010084 83.228,24.1310084 C83.648,24.3610084 84.128,24.4760084 84.668,24.4760084 Z M85.968,21.2860084 L83.278,21.2860084 C83.3046667,20.8326751 83.448,20.4893418 83.708,20.2560084 C83.968,20.0226751 84.288,19.9060084 84.668,19.9060084 C85.0413333,19.9060084 85.3563333,20.0226751 85.613,20.2560084 C85.8696667,20.4893418 85.988,20.8326751 85.968,21.2860084 L85.968,21.2860084 Z M90.698,24.4760084 C91.3246667,24.4760084 91.823,24.3293418 92.193,24.0360084 C92.563,23.7426751 92.748,23.3593418 92.748,22.8860084 C92.748,22.5060084 92.653,22.2043418 92.463,21.9810084 C92.273,21.7576751 92.0463333,21.5943418 91.783,21.4910084 C91.5196667,21.3876751 91.178,21.2893418 90.758,21.1960084 C90.458,21.1226751 90.228,21.0593418 90.068,21.0060084 C89.908,20.9526751 89.7746667,20.8793418 89.668,20.7860084 C89.5613333,20.6926751 89.508,20.5693418 89.508,20.4160084 C89.508,20.2226751 89.5746667,20.0693418 89.708,19.9560084 C89.8413333,19.8426751 90.028,19.7860084 90.268,19.7860084 C90.568,19.7860084 90.8113333,19.8660084 90.998,20.0260084 C91.1846667,20.1860084 91.3046667,20.3993418 91.358,20.6660084 L91.358,20.6660084 L92.678,20.6660084 C92.578,20.0993418 92.3246667,19.6460084 91.918,19.3060084 C91.5113333,18.9660084 90.9713333,18.7960084 90.298,18.7960084 C89.6513333,18.7960084 89.1446667,18.9460084 88.778,19.2460084 C88.4113333,19.5460084 88.228,19.9360084 88.228,20.4160084 C88.228,20.7893418 88.3196667,21.0826751 88.503,21.2960084 C88.6863333,21.5093418 88.9063333,21.6643418 89.163,21.7610084 C89.4196667,21.8576751 89.7546667,21.9526751 90.168,22.0460084 C90.468,22.1193418 90.6996667,22.1826751 90.863,22.2360084 C91.0263333,22.2893418 91.163,22.3660084 91.273,22.4660084 C91.383,22.5660084 91.438,22.6960084 91.438,22.8560084 C91.438,23.0426751 91.3746667,23.1943418 91.248,23.3110084 C91.1213333,23.4276751 90.938,23.4860084 90.698,23.4860084 C90.3646667,23.4860084 90.0946667,23.4076751 89.888,23.2510084 C89.6813333,23.0943418 89.5613333,22.8793418 89.528,22.6060084 L89.528,22.6060084 L88.178,22.6060084 C88.2713333,23.2060084 88.5346667,23.6676751 88.968,23.9910084 C89.4013333,24.3143418 89.978,24.4760084 90.698,24.4760084 Z M95.178,20.2460084 L95.178,18.7760084 L93.658,18.7760084 L93.658,20.2460084 L95.178,20.2460084 Z M95.178,24.4060084 L95.178,22.9360084 L93.658,22.9360084 L93.658,24.4060084 L95.178,24.4060084 Z" id="YourRoyalties:" fill="#000000" fill-rule="nonzero"></path>
                    </g>
                    <g id="PRS" transform="translate(126.999800, 37.860400)">
                        <g id="Backer">
                            <use fill="black" fill-opacity="1" filter="url(#filter-4)" xlink:href="#path-3"></use>
                            <use fill="#FEFEFE" fill-rule="evenodd" xlink:href="#path-3"></use>
                        </g>
                        <path d="M7.96480621,27.9490735 C10.3008062,34.4190735 16.2528062,46.7720735 25.1478062,44.7490735 C28.8318062,44.0750735 31.3028062,40.9310735 33.9978062,38.6840735 C37.1428062,36.2150735 40.2878062,34.6410735 43.6568062,32.5080735 C43.6568062,32.5080735 56.0108062,26.1070735 50.6198062,19.6140735 C50.6198062,19.6140735 46.3518062,13.7070735 30.8538062,12.1790735 C17.0618062,10.8290735 3.22480621,17.2120735 7.94180621,27.9480735" id="Fill-8" fill="#E80033"></path>
                        <g transform="translate(14.000000, 19.000000)">
                            <path d="M22.7061,4.31790387 L21.5821,4.04690387 C20.4591,3.79990387 19.5611,3.59790387 19.5611,2.78990387 C19.5611,2.11690387 20.2351,1.71190387 21.3611,1.71190387 C22.3231,1.63290387 23.2581,2.05790387 23.8321,2.83490387 C23.8321,2.92390387 23.8321,2.96890387 24.0561,2.96890387 C24.0561,2.96890387 24.2811,2.94790387 24.2811,2.90290387 L25.1811,2.16190387 C25.4061,2.11690387 25.4061,2.02690387 25.4061,1.91390387 C25.4061,1.82490387 25.4061,1.75590387 25.1811,1.71390387 L25.1811,1.69190387 C24.2471,0.556903873 22.8311,-0.0680961275 21.3631,0.00590387255 C19.5631,0.00590387255 17.5441,0.994903873 17.5441,3.06190387 C17.5441,4.86190387 18.8921,5.44290387 20.4641,5.80090387 L21.5871,6.04790387 C22.9351,6.36390387 23.6091,6.56590387 23.6091,7.34790387 C23.6091,8.29290387 22.4861,8.60690387 21.5871,8.60690387 C20.5381,8.64890387 19.5331,8.17990387 18.8921,7.34790387 C18.6671,7.28190387 18.6671,7.23690387 18.4431,7.23690387 L18.4431,7.30290387 L17.3201,8.04590387 C17.3201,8.11290387 17.0951,8.20290387 17.0951,8.31490387 C17.0951,8.38090387 17.0951,8.44990387 17.3201,8.49490387 L17.3201,8.51690387 C18.3181,9.70790387 19.8101,10.3719039 21.3631,10.3169039 C23.3841,10.3169039 25.6311,9.48590387 25.6311,7.08290387 C25.6311,5.21690387 24.2831,4.63290387 22.7111,4.31990387 M16.4161,9.57590387 L14.3721,6.11690387 C15.6541,5.75590387 16.5071,4.54590387 16.4161,3.21590387 C16.4161,1.48790387 15.0911,0.251816603 13.0241,0.251816603 L9.2511,0.251816603 C9.0811,0.247903873 8.9401,0.381903873 8.9361,0.551903873 L8.9361,0.566903873 L8.9361,9.73090387 C8.9371,9.90790387 9.0741,10.0539039 9.2511,10.0679039 L10.4641,10.0679039 C10.6431,10.0609039 10.7841,9.91090387 10.7781,9.73090387 L10.7781,6.45190387 L12.5301,6.45190387 L14.3501,9.88690387 C14.4091,9.98390387 14.5071,10.0489039 14.6191,10.0679039 L15.9671,10.0679039 C16.1921,10.0679039 16.4161,9.91090387 16.4161,9.73090387 L16.4161,9.57390387 M12.7781,4.81390387 L10.7781,4.81390387 L10.7781,1.87090387 L12.5081,1.87090387 C13.7881,1.87090387 14.3951,2.45590387 14.3951,3.35390387 C14.4071,4.15390387 13.7671,4.81190387 12.9671,4.82390387 C12.9031,4.82490387 12.8401,4.82090387 12.7771,4.81390387 M4.4451,0.255903873 L0.6711,0.255903873 C0.4911,0.250903873 0.3401,0.390903873 0.3341,0.570903873 L0.3341,9.73490387 C0.3391,9.91890387 0.4871,10.0669039 0.6711,10.0719039 L1.8841,10.0719039 C2.0641,10.0659039 2.2051,9.91490387 2.1991,9.73490387 L2.1991,6.45590387 L3.9731,6.45590387 C4.5991,6.42490387 5.2181,6.31190387 5.8151,6.11890387 C7.0721,5.73790387 7.8881,4.52690387 7.7691,3.21790387 C7.7691,1.48990387 6.5341,0.253903873 4.4451,0.253903873 M4.1991,4.81590387 L2.1991,4.81590387 L2.1991,1.87290387 L3.9281,1.87290387 C5.2091,1.87290387 5.83810114,2.45790387 5.83810114,3.35590387 C5.8391,4.16690387 5.1831,4.82490387 4.3721,4.82590387 C4.3141,4.82590387 4.2561,4.82290387 4.1981,4.81590387" id="Fill-10" fill="#FEFEFE"></path>
                            <path d="M8.291,13.2212039 C8.2,13.1782039 8.1,13.1552039 7.999,13.1542039 C7.662,13.1542039 7.299,13.4912039 7.033,14.6582039 L6.808,15.7822039 L6.224,15.7822039 L6.898,12.6592039 L7.348,12.6592039 L7.258,13.2882039 C7.482,12.8392039 7.752,12.5702039 8.158,12.5702039 C8.302,12.5702039 8.443,12.6172039 8.558,12.7042039 L8.291,13.2212039 Z M5.147,15.4012039 C4.862,15.6892039 4.474,15.8502131 4.069,15.8492039 C3.74,15.8622039 3.418,15.7492039 3.169,15.5342039 C2.922,15.2572039 2.793,14.8952039 2.809,14.5252039 C2.802,13.9732039 3.012,13.4412039 3.393,13.0412039 C3.685,12.7352039 4.092,12.5642039 4.516,12.5702039 C4.85,12.5542039 5.175,12.6752039 5.416,12.9072039 C5.645,13.1752039 5.766,13.5202039 5.753,13.8722039 C5.775,14.4452039 5.555,14.9992039 5.146,15.4012039 L5.147,15.4012039 Z M4.966,13.2432039 C4.833,13.1182039 4.654,13.0532039 4.471,13.0652039 C4.211,13.0642039 3.964,13.1792039 3.798,13.3782039 C3.529,13.6992039 3.385,14.1062039 3.393,14.5252039 C3.38,14.7732039 3.47,15.0162039 3.64,15.1982039 C3.774,15.3032039 3.941,15.3592039 4.112,15.3562039 C4.332,15.3562039 4.542,15.2662039 4.696,15.1092039 C5.008,14.7832039 5.178,14.3462039 5.168,13.8962039 C5.181,13.6612039 5.11,13.4302039 4.968,13.2432039 L4.966,13.2432039 Z M3.166,11.6442039 C3.034,11.5532039 2.876,11.5062039 2.716,11.5092039 C2.402,11.5092039 2.155,11.7092039 2.042,12.2092039 L1.975,12.5692039 L2.739,12.5692039 L2.539,13.0402039 L1.91,13.0402039 C1.663,14.5452039 1.46,16.4542039 0.36,17.3542039 L0,16.9052039 C0.876,16.0952039 1.034,14.8612039 1.326,13.0402039 L0.876,13.0402039 L0.944,12.5692039 L1.393,12.5692039 L1.46,12.1682039 C1.509,11.5102039 2.058,11.0002039 2.718,11.0002039 C2.962,11.0032039 3.202,11.0652039 3.418,11.1802039 L3.166,11.6442039 Z" id="Fill-12" fill="#FCB5C5"></path>
                            <path d="M24.7383,15.2974039 L24.7383,15.0274039 C24.5133,14.9604039 24.5133,14.9154039 24.5133,14.9154039 L24.5133,14.9384039 C24.2313,15.0664039 23.9213,15.1194039 23.6133,15.0954039 C22.9963,15.1014039 22.4923,14.6054039 22.4883,13.9884039 C22.4873,13.9604039 22.4883,13.9334039 22.4903,13.9044039 C22.4903,13.2414039 23.0283,12.7044039 23.6913,12.7054039 C23.7403,12.7054039 23.7893,12.7084039 23.8383,12.7144039 C24.0703,12.7044039 24.3013,12.7504039 24.5113,12.8484039 C24.5113,12.8484039 24.7363,12.7814039 24.7363,12.6924039 L24.7363,12.4004039 C24.7363,12.3324039 24.5113,12.2644039 24.5113,12.2424039 C23.4933,11.8424039 22.3443,12.3434039 21.9443,13.3604039 C21.8693,13.5494039 21.8243,13.7474039 21.8113,13.9494039 C21.7683,14.8874039 22.4933,15.6834039 23.4313,15.7264039 C23.4913,15.7284039 23.5513,15.7284039 23.6113,15.7244039 C23.9993,15.7074039 24.3803,15.6154039 24.7343,15.4544039 L24.7343,15.2974039 L24.7383,15.2974039 Z M21.1443,12.3324039 L21.1443,12.3094039 C21.1443,12.2194039 21.1443,12.1524039 20.9203,12.1524039 L20.4703,12.1524039 L20.4703,15.6794039 L20.9203,15.6794039 C21.1443,15.6794039 21.1443,15.6114039 21.1443,15.4994039 L21.1443,12.3324039 Z M18.2233,13.0324039 C18.2233,12.8324039 18.4483,12.6954039 18.6723,12.6954039 C18.9053,12.7054039 19.1333,12.7584039 19.3463,12.8534039 C19.3463,12.8534039 19.5713,12.7854039 19.5713,12.6954039 L19.5713,12.4264039 C19.5713,12.3594039 19.5713,12.2914039 19.3463,12.2694039 C19.1333,12.1744039 18.9053,12.1214039 18.6723,12.1114039 C17.7723,12.1114039 17.3253,12.5834039 17.3253,13.1224039 C17.3253,13.3924039 17.5493,13.5944039 17.5493,13.7514039 C17.9993,14.2454039 18.8973,14.3134039 18.8973,14.7844039 C18.8973,15.0544039 18.6723,15.1444039 18.4483,15.1444039 C18.2123,15.1374039 17.9823,15.0754039 17.7743,14.9644039 C17.7743,14.9424039 17.7743,14.9424039 17.5493,14.9424039 L17.5493,15.0314039 L17.3253,15.2564039 L17.3253,15.3464039 C17.3253,15.3914039 17.3253,15.4584039 17.5493,15.4814039 C17.8163,15.6544039 18.1313,15.7414039 18.4493,15.7284039 C19.1233,15.7284039 19.7963,15.3284039 19.7963,14.6944039 C19.7963,13.5944039 18.2243,13.6394039 18.2243,13.0324039 L18.2233,13.0324039 Z M16.8753,12.3144039 C16.8753,12.2234039 16.8753,12.1564039 16.6513,12.1564039 L16.2023,12.1564039 L16.2023,14.3574039 C16.2023,14.5814039 15.9773,14.7564039 15.9773,14.8964039 C15.7813,15.0394039 15.5463,15.1184039 15.3033,15.1204039 C15.0923,15.1284039 14.8883,15.0474039 14.7423,14.8964039 C14.6053,14.7324039 14.5343,14.5244039 14.5423,14.3124039 L14.5423,12.3124039 C14.5443,12.2274039 14.4773,12.1564039 14.3933,12.1544039 L14.3853,12.1544039 L14.0033,12.1544039 C13.9153,12.1444039 13.8363,12.2064039 13.8253,12.2944039 C13.8243,12.3004039 13.8243,12.3064039 13.8243,12.3124039 L13.8243,14.3784039 C13.8033,14.7384039 13.9243,15.0944039 14.1613,15.3664039 C14.4833,15.6274039 14.8923,15.7564039 15.3063,15.7264039 C15.7193,15.7554039 16.1263,15.6094039 16.4293,15.3264039 C16.7013,15.0584039 16.8613,14.6964039 16.8783,14.3164039 L16.8753,12.3144039 Z M13.0263,15.5074039 L13.0263,12.3184039 C13.0173,12.2264039 12.9393,12.1564039 12.8473,12.1604039 L12.4463,12.1604039 C12.3933,12.1534039 12.3403,12.1804039 12.3133,12.2284039 L11.5043,13.4634039 C11.3923,13.6204039 11.3233,13.7554039 11.2573,13.8634039 C11.1903,13.7514039 11.1003,13.6164039 11.0093,13.4824039 L10.1343,12.2234039 C10.0963,12.1764039 10.0373,12.1514039 9.9773,12.1564039 L9.5773,12.1564039 C9.4853,12.1524039 9.4063,12.2224039 9.3983,12.3144039 L9.3983,15.5034039 C9.3963,15.6014039 9.4743,15.6824039 9.5713,15.6834039 C9.5733,15.6834039 9.5753,15.6844039 9.5773,15.6834039 L9.9593,15.6834039 C10.0573,15.6854039 10.1373,15.6064039 10.1393,15.5074039 L10.1393,15.5034039 L10.1393,13.3474039 C10.2063,13.4824039 10.2963,13.5944039 10.3633,13.7064039 L11.0373,14.6504039 C11.0713,14.6894039 11.1193,14.7134039 11.1723,14.7174039 L11.3293,14.7174039 C11.3893,14.7204039 11.4473,14.6944039 11.4873,14.6504039 L12.0923,13.7294039 C12.1733,13.6094039 12.2403,13.4814039 12.2933,13.3474039 L12.3163,13.3474039 C12.2973,13.4734039 12.2893,13.6014039 12.2933,13.7294039 L12.2933,15.5034039 C12.3003,15.6004039 12.3763,15.6774039 12.4733,15.6834039 L12.8553,15.6834039 C12.9463,15.6924039 13.0263,15.6244039 13.0343,15.5334039 C13.0353,15.5244039 13.0353,15.5144039 13.0343,15.5034039 L13.0263,15.5074039 Z" id="Fill-14" fill="#FEFEFE"></path>
                        </g>
                        <path d="M60.05,24 L60.05,21.38 L61.21,21.38 C62.0166667,21.38 62.6383333,21.18 63.075,20.78 C63.5116667,20.38 63.73,19.8433333 63.73,19.17 C63.73,18.4833333 63.5183333,17.94 63.095,17.54 C62.6716667,17.14 62.0433333,16.94 61.21,16.94 L61.21,16.94 L58.64,16.94 L58.64,24 L60.05,24 Z M61.06,20.25 L60.05,20.25 L60.05,18.08 L61.06,18.08 C61.5,18.08 61.8166667,18.1733333 62.01,18.36 C62.2033333,18.5466667 62.3,18.8166667 62.3,19.17 C62.3,19.89 61.8866667,20.25 61.06,20.25 L61.06,20.25 Z M67.14,24.07 C67.6,24.07 68.0183333,23.9833333 68.395,23.81 C68.7716667,23.6366667 69.08,23.3966667 69.32,23.09 C69.56,22.7833333 69.7166667,22.4366667 69.79,22.05 L69.79,22.05 L68.3,22.05 C68.24,22.3233333 68.1016667,22.54 67.885,22.7 C67.6683333,22.86 67.3966667,22.94 67.07,22.94 C66.7033333,22.94 66.3966667,22.8233333 66.15,22.59 C65.9033333,22.3566667 65.77,21.9933333 65.75,21.5 L65.75,21.5 L69.81,21.5 C69.8433333,21.32 69.86,21.16 69.86,21.02 C69.86,20.5133333 69.7483333,20.0616667 69.525,19.665 C69.3016667,19.2683333 68.985,18.9566667 68.575,18.73 C68.165,18.5033333 67.6866667,18.39 67.14,18.39 C66.6,18.39 66.12,18.5033333 65.7,18.73 C65.28,18.9566667 64.9533333,19.285 64.72,19.715 C64.4866667,20.145 64.37,20.65 64.37,21.23 C64.37,21.81 64.4866667,22.3133333 64.72,22.74 C64.9533333,23.1666667 65.28,23.495 65.7,23.725 C66.12,23.955 66.6,24.07 67.14,24.07 Z M68.44,20.88 L65.75,20.88 C65.7766667,20.4266667 65.92,20.0833333 66.18,19.85 C66.44,19.6166667 66.76,19.5 67.14,19.5 C67.5133333,19.5 67.8283333,19.6166667 68.085,19.85 C68.3416667,20.0833333 68.46,20.4266667 68.44,20.88 L68.44,20.88 Z M72.27,24 L72.27,21.33 C72.27,20.37 72.7866667,19.89 73.82,19.89 L73.82,19.89 L74.23,19.89 L74.23,18.38 C73.81,18.38 73.43,18.4816667 73.09,18.685 C72.75,18.8883333 72.4766667,19.1666667 72.27,19.52 L72.27,19.52 L72.27,18.46 L70.86,18.46 L70.86,24 L72.27,24 Z M76.63,24 L76.63,19.65 L77.75,19.65 L77.75,18.46 L76.63,18.46 L76.63,18.45 C76.63,18.0833333 76.7133333,17.8266667 76.88,17.68 C77.0466667,17.5333333 77.3366667,17.4733333 77.75,17.5 L77.75,17.5 L77.75,16.28 C77.6833333,16.2733333 77.5866667,16.27 77.46,16.27 C76.72,16.27 76.1616667,16.4483333 75.785,16.805 C75.4083333,17.1616667 75.22,17.67 75.22,18.33 L75.22,18.33 L75.22,18.46 L74.51,18.46 L74.51,19.65 L75.22,19.65 L75.22,24 L76.63,24 Z M81.15,24.07 C81.69,24.07 82.175,23.955 82.605,23.725 C83.035,23.495 83.3733333,23.1666667 83.62,22.74 C83.8666667,22.3133333 83.99,21.81 83.99,21.23 C83.99,20.65 83.8666667,20.145 83.62,19.715 C83.3733333,19.285 83.035,18.9566667 82.605,18.73 C82.175,18.5033333 81.69,18.39 81.15,18.39 C80.61,18.39 80.125,18.5033333 79.695,18.73 C79.265,18.9566667 78.9266667,19.285 78.68,19.715 C78.4333333,20.145 78.31,20.65 78.31,21.23 C78.31,21.81 78.4333333,22.3133333 78.68,22.74 C78.9266667,23.1666667 79.265,23.495 79.695,23.725 C80.125,23.955 80.61,24.07 81.15,24.07 Z M81.15,22.85 C80.7566667,22.85 80.4233333,22.7116667 80.15,22.435 C79.8766667,22.1583333 79.74,21.7566667 79.74,21.23 C79.74,20.7033333 79.8766667,20.3016667 80.15,20.025 C80.4233333,19.7483333 80.7566667,19.61 81.15,19.61 C81.5433333,19.61 81.8766667,19.7483333 82.15,20.025 C82.4233333,20.3016667 82.56,20.7033333 82.56,21.23 C82.56,21.7566667 82.4233333,22.1583333 82.15,22.435 C81.8766667,22.7116667 81.5433333,22.85 81.15,22.85 Z M86.4,24 L86.4,21.33 C86.4,20.37 86.9166667,19.89 87.95,19.89 L87.95,19.89 L88.36,19.89 L88.36,18.38 C87.94,18.38 87.56,18.4816667 87.22,18.685 C86.88,18.8883333 86.6066667,19.1666667 86.4,19.52 L86.4,19.52 L86.4,18.46 L84.99,18.46 L84.99,24 L86.4,24 Z M90.55,24 L90.55,21.06 C90.55,20.5866667 90.6666667,20.2266667 90.9,19.98 C91.1333333,19.7333333 91.4466667,19.61 91.84,19.61 C92.22,19.61 92.5183333,19.725 92.735,19.955 C92.9516667,20.185 93.06,20.5133333 93.06,20.94 L93.06,20.94 L93.06,24 L94.46,24 L94.46,21.06 C94.46,20.5866667 94.5766667,20.2266667 94.81,19.98 C95.0433333,19.7333333 95.3566667,19.61 95.75,19.61 C96.13,19.61 96.4283333,19.725 96.645,19.955 C96.8616667,20.185 96.97,20.5133333 96.97,20.94 L96.97,20.94 L96.97,24 L98.37,24 L98.37,20.78 C98.37,20.0133333 98.175,19.4216667 97.785,19.005 C97.395,18.5883333 96.8633333,18.38 96.19,18.38 C95.7633333,18.38 95.3783333,18.4916667 95.035,18.715 C94.6916667,18.9383333 94.4333333,19.24 94.26,19.62 C94.0933333,19.22 93.845,18.9133333 93.515,18.7 C93.185,18.4866667 92.7966667,18.38 92.35,18.38 C91.93,18.38 91.5616667,18.4783333 91.245,18.675 C90.9283333,18.8716667 90.6966667,19.15 90.55,19.51 L90.55,19.51 L90.55,18.46 L89.14,18.46 L89.14,24 L90.55,24 Z M101.78,24.07 C102.246667,24.07 102.646667,23.9583333 102.98,23.735 C103.313333,23.5116667 103.55,23.2133333 103.69,22.84 L103.69,22.84 L103.69,24 L105.09,24 L105.09,18.46 L103.69,18.46 L103.69,19.61 C103.55,19.2366667 103.313333,18.94 102.98,18.72 C102.646667,18.5 102.246667,18.39 101.78,18.39 C101.313333,18.39 100.893333,18.5033333 100.52,18.73 C100.146667,18.9566667 99.855,19.285 99.645,19.715 C99.435,20.145 99.33,20.65 99.33,21.23 C99.33,21.81 99.435,22.315 99.645,22.745 C99.855,23.175 100.146667,23.5033333 100.52,23.73 C100.893333,23.9566667 101.313333,24.07 101.78,24.07 Z M102.22,22.83 C101.78,22.83 101.426667,22.6883333 101.16,22.405 C100.893333,22.1216667 100.76,21.73 100.76,21.23 C100.76,20.73 100.893333,20.3366667 101.16,20.05 C101.426667,19.7633333 101.78,19.62 102.22,19.62 C102.646667,19.62 102.998333,19.765 103.275,20.055 C103.551667,20.345 103.69,20.7366667 103.69,21.23 C103.69,21.7166667 103.551667,22.105 103.275,22.395 C102.998333,22.685 102.646667,22.83 102.22,22.83 Z M107.78,24 L107.78,21.06 C107.78,20.5733333 107.9,20.2 108.14,19.94 C108.38,19.68 108.7,19.55 109.1,19.55 C109.493333,19.55 109.803333,19.6716667 110.03,19.915 C110.256667,20.1583333 110.37,20.5 110.37,20.94 L110.37,20.94 L110.37,24 L111.77,24 L111.77,20.78 C111.77,20.02 111.58,19.43 111.2,19.01 C110.82,18.59 110.31,18.38 109.67,18.38 C109.23,18.38 108.841667,18.485 108.505,18.695 C108.168333,18.905 107.926667,19.1966667 107.78,19.57 L107.78,19.57 L107.78,18.46 L106.37,18.46 L106.37,24 L107.78,24 Z M115.5,24.07 C116.213333,24.07 116.808333,23.8766667 117.285,23.49 C117.761667,23.1033333 118.06,22.5766667 118.18,21.91 L118.18,21.91 L116.69,21.91 C116.63,22.2033333 116.493333,22.435 116.28,22.605 C116.066667,22.775 115.796667,22.86 115.47,22.86 C115.096667,22.86 114.785,22.7216667 114.535,22.445 C114.285,22.1683333 114.16,21.7633333 114.16,21.23 C114.16,20.6966667 114.285,20.2916667 114.535,20.015 C114.785,19.7383333 115.096667,19.6 115.47,19.6 C115.796667,19.6 116.066667,19.685 116.28,19.855 C116.493333,20.025 116.63,20.2566667 116.69,20.55 L116.69,20.55 L118.18,20.55 C118.06,19.8833333 117.761667,19.3566667 117.285,18.97 C116.808333,18.5833333 116.213333,18.39 115.5,18.39 C114.96,18.39 114.48,18.5033333 114.06,18.73 C113.64,18.9566667 113.313333,19.285 113.08,19.715 C112.846667,20.145 112.73,20.65 112.73,21.23 C112.73,21.81 112.846667,22.3133333 113.08,22.74 C113.313333,23.1666667 113.64,23.495 114.06,23.725 C114.48,23.955 114.96,24.07 115.5,24.07 Z M121.67,24.07 C122.13,24.07 122.548333,23.9833333 122.925,23.81 C123.301667,23.6366667 123.61,23.3966667 123.85,23.09 C124.09,22.7833333 124.246667,22.4366667 124.32,22.05 L124.32,22.05 L122.83,22.05 C122.77,22.3233333 122.631667,22.54 122.415,22.7 C122.198333,22.86 121.926667,22.94 121.6,22.94 C121.233333,22.94 120.926667,22.8233333 120.68,22.59 C120.433333,22.3566667 120.3,21.9933333 120.28,21.5 L120.28,21.5 L124.34,21.5 C124.373333,21.32 124.39,21.16 124.39,21.02 C124.39,20.5133333 124.278333,20.0616667 124.055,19.665 C123.831667,19.2683333 123.515,18.9566667 123.105,18.73 C122.695,18.5033333 122.216667,18.39 121.67,18.39 C121.13,18.39 120.65,18.5033333 120.23,18.73 C119.81,18.9566667 119.483333,19.285 119.25,19.715 C119.016667,20.145 118.9,20.65 118.9,21.23 C118.9,21.81 119.016667,22.3133333 119.25,22.74 C119.483333,23.1666667 119.81,23.495 120.23,23.725 C120.65,23.955 121.13,24.07 121.67,24.07 Z M122.97,20.88 L120.28,20.88 C120.306667,20.4266667 120.45,20.0833333 120.71,19.85 C120.97,19.6166667 121.29,19.5 121.67,19.5 C122.043333,19.5 122.358333,19.6166667 122.615,19.85 C122.871667,20.0833333 122.99,20.4266667 122.97,20.88 L122.97,20.88 Z M60.05,39 L60.05,36.25 L60.67,36.25 L62.32,39 L63.88,39 L62.12,36.18 C62.68,36.06 63.1083333,35.82 63.405,35.46 C63.7016667,35.1 63.85,34.6533333 63.85,34.12 C63.85,33.4666667 63.635,32.94 63.205,32.54 C62.775,32.14 62.15,31.94 61.33,31.94 L61.33,31.94 L58.64,31.94 L58.64,39 L60.05,39 Z M61.21,35.28 L60.05,35.28 L60.05,33.13 L61.21,33.13 C61.6233333,33.13 61.9283333,33.225 62.125,33.415 C62.3216667,33.605 62.42,33.87 62.42,34.21 C62.42,34.9233333 62.0166667,35.28 61.21,35.28 L61.21,35.28 Z M67.36,39.07 C67.9,39.07 68.385,38.955 68.815,38.725 C69.245,38.495 69.5833333,38.1666667 69.83,37.74 C70.0766667,37.3133333 70.2,36.81 70.2,36.23 C70.2,35.65 70.0766667,35.145 69.83,34.715 C69.5833333,34.285 69.245,33.9566667 68.815,33.73 C68.385,33.5033333 67.9,33.39 67.36,33.39 C66.82,33.39 66.335,33.5033333 65.905,33.73 C65.475,33.9566667 65.1366667,34.285 64.89,34.715 C64.6433333,35.145 64.52,35.65 64.52,36.23 C64.52,36.81 64.6433333,37.3133333 64.89,37.74 C65.1366667,38.1666667 65.475,38.495 65.905,38.725 C66.335,38.955 66.82,39.07 67.36,39.07 Z M67.36,37.85 C66.9666667,37.85 66.6333333,37.7116667 66.36,37.435 C66.0866667,37.1583333 65.95,36.7566667 65.95,36.23 C65.95,35.7033333 66.0866667,35.3016667 66.36,35.025 C66.6333333,34.7483333 66.9666667,34.61 67.36,34.61 C67.7533333,34.61 68.0866667,34.7483333 68.36,35.025 C68.6333333,35.3016667 68.77,35.7033333 68.77,36.23 C68.77,36.7566667 68.6333333,37.1583333 68.36,37.435 C68.0866667,37.7116667 67.7533333,37.85 67.36,37.85 Z M73.22,41.64 L76.61,33.46 L75.06,33.46 L73.66,37.22 L72.15,33.46 L70.58,33.46 L72.91,38.84 L71.66,41.64 L73.22,41.64 Z M79.44,39.07 C79.9066667,39.07 80.3066667,38.9583333 80.64,38.735 C80.9733333,38.5116667 81.21,38.2133333 81.35,37.84 L81.35,37.84 L81.35,39 L82.75,39 L82.75,33.46 L81.35,33.46 L81.35,34.61 C81.21,34.2366667 80.9733333,33.94 80.64,33.72 C80.3066667,33.5 79.9066667,33.39 79.44,33.39 C78.9733333,33.39 78.5533333,33.5033333 78.18,33.73 C77.8066667,33.9566667 77.515,34.285 77.305,34.715 C77.095,35.145 76.99,35.65 76.99,36.23 C76.99,36.81 77.095,37.315 77.305,37.745 C77.515,38.175 77.8066667,38.5033333 78.18,38.73 C78.5533333,38.9566667 78.9733333,39.07 79.44,39.07 Z M79.88,37.83 C79.44,37.83 79.0866667,37.6883333 78.82,37.405 C78.5533333,37.1216667 78.42,36.73 78.42,36.23 C78.42,35.73 78.5533333,35.3366667 78.82,35.05 C79.0866667,34.7633333 79.44,34.62 79.88,34.62 C80.3066667,34.62 80.6583333,34.765 80.935,35.055 C81.2116667,35.345 81.35,35.7366667 81.35,36.23 C81.35,36.7166667 81.2116667,37.105 80.935,37.395 C80.6583333,37.685 80.3066667,37.83 79.88,37.83 Z M85.44,39 L85.44,31.6 L84.03,31.6 L84.03,39 L85.44,39 Z M89.68,39 L89.68,37.79 L89.13,37.79 C88.8766667,37.79 88.6966667,37.7366667 88.59,37.63 C88.4833333,37.5233333 88.43,37.3366667 88.43,37.07 L88.43,37.07 L88.43,34.65 L89.67,34.65 L89.67,33.46 L88.43,33.46 L88.43,32.09 L87.02,32.09 L87.02,33.46 L86.25,33.46 L86.25,34.65 L87.02,34.65 L87.02,37.05 C87.02,37.75 87.185,38.25 87.515,38.55 C87.845,38.85 88.32,39 88.94,39 L88.94,39 L89.68,39 Z M91.4,32.63 C91.66,32.63 91.87,32.5583333 92.03,32.415 C92.19,32.2716667 92.27,32.09 92.27,31.87 C92.27,31.6433333 92.19,31.4583333 92.03,31.315 C91.87,31.1716667 91.66,31.1 91.4,31.1 C91.14,31.1 90.93,31.1716667 90.77,31.315 C90.61,31.4583333 90.53,31.6433333 90.53,31.87 C90.53,32.09 90.61,32.2716667 90.77,32.415 C90.93,32.5583333 91.14,32.63 91.4,32.63 Z M92.1,39 L92.1,33.46 L90.69,33.46 L90.69,39 L92.1,39 Z M95.87,39.07 C96.33,39.07 96.7483333,38.9833333 97.125,38.81 C97.5016667,38.6366667 97.81,38.3966667 98.05,38.09 C98.29,37.7833333 98.4466667,37.4366667 98.52,37.05 L98.52,37.05 L97.03,37.05 C96.97,37.3233333 96.8316667,37.54 96.615,37.7 C96.3983333,37.86 96.1266667,37.94 95.8,37.94 C95.4333333,37.94 95.1266667,37.8233333 94.88,37.59 C94.6333333,37.3566667 94.5,36.9933333 94.48,36.5 L94.48,36.5 L98.54,36.5 C98.5733333,36.32 98.59,36.16 98.59,36.02 C98.59,35.5133333 98.4783333,35.0616667 98.255,34.665 C98.0316667,34.2683333 97.715,33.9566667 97.305,33.73 C96.895,33.5033333 96.4166667,33.39 95.87,33.39 C95.33,33.39 94.85,33.5033333 94.43,33.73 C94.01,33.9566667 93.6833333,34.285 93.45,34.715 C93.2166667,35.145 93.1,35.65 93.1,36.23 C93.1,36.81 93.2166667,37.3133333 93.45,37.74 C93.6833333,38.1666667 94.01,38.495 94.43,38.725 C94.85,38.955 95.33,39.07 95.87,39.07 Z M97.17,35.88 L94.48,35.88 C94.5066667,35.4266667 94.65,35.0833333 94.91,34.85 C95.17,34.6166667 95.49,34.5 95.87,34.5 C96.2433333,34.5 96.5583333,34.6166667 96.815,34.85 C97.0716667,35.0833333 97.19,35.4266667 97.17,35.88 L97.17,35.88 Z M101.9,39.07 C102.526667,39.07 103.025,38.9233333 103.395,38.63 C103.765,38.3366667 103.95,37.9533333 103.95,37.48 C103.95,37.1 103.855,36.7983333 103.665,36.575 C103.475,36.3516667 103.248333,36.1883333 102.985,36.085 C102.721667,35.9816667 102.38,35.8833333 101.96,35.79 C101.66,35.7166667 101.43,35.6533333 101.27,35.6 C101.11,35.5466667 100.976667,35.4733333 100.87,35.38 C100.763333,35.2866667 100.71,35.1633333 100.71,35.01 C100.71,34.8166667 100.776667,34.6633333 100.91,34.55 C101.043333,34.4366667 101.23,34.38 101.47,34.38 C101.77,34.38 102.013333,34.46 102.2,34.62 C102.386667,34.78 102.506667,34.9933333 102.56,35.26 L102.56,35.26 L103.88,35.26 C103.78,34.6933333 103.526667,34.24 103.12,33.9 C102.713333,33.56 102.173333,33.39 101.5,33.39 C100.853333,33.39 100.346667,33.54 99.98,33.84 C99.6133333,34.14 99.43,34.53 99.43,35.01 C99.43,35.3833333 99.5216667,35.6766667 99.705,35.89 C99.8883333,36.1033333 100.108333,36.2583333 100.365,36.355 C100.621667,36.4516667 100.956667,36.5466667 101.37,36.64 C101.67,36.7133333 101.901667,36.7766667 102.065,36.83 C102.228333,36.8833333 102.365,36.96 102.475,37.06 C102.585,37.16 102.64,37.29 102.64,37.45 C102.64,37.6366667 102.576667,37.7883333 102.45,37.905 C102.323333,38.0216667 102.14,38.08 101.9,38.08 C101.566667,38.08 101.296667,38.0016667 101.09,37.845 C100.883333,37.6883333 100.763333,37.4733333 100.73,37.2 L100.73,37.2 L99.38,37.2 C99.4733333,37.8 99.7366667,38.2616667 100.17,38.585 C100.603333,38.9083333 101.18,39.07 101.9,39.07 Z" id="PerformanceRoyalties" fill="#FF006E" fill-rule="nonzero"></path>
                        <path d="M186,27.9994926 C186,36.2827036 179.284279,43 170.999493,43 C162.715721,43 156,36.2827036 156,27.9994926 C156,19.7152667 162.715721,13 170.999493,13 C179.284279,13 186,19.7152667 186,27.9994926 Z" id="Fill-19" fill="#F6F7FF"></path>
                        <path d="M170.5741,32.207 C170.3151,32.805 169.9291,33.34 169.4431,33.774 L176.6121,33.774 L176.6121,36.035 L166.6531,36.035 L166.2861,34.609 C166.8861,34.096 167.3831,33.475 167.7521,32.776 C168.0811,32.077 168.2411,31.311 168.2201,30.537 C168.2201,30.332 168.1991,30.128 168.1601,29.927 L165.7771,29.927 L165.7771,27.991 L167.5901,27.991 C167.2521,27.028 167.0661,26.019 167.0401,24.998 C167.0221,24.208 167.2231,23.43 167.6211,22.748 C168.0091,22.102 168.5791,21.584 169.2601,21.261 C170.0161,20.903 170.8451,20.726 171.6821,20.741 C172.9671,20.67 174.2251,21.117 175.1771,21.983 C176.0411,22.849 176.5591,24.001 176.6331,25.222 L173.9641,25.222 C173.9231,24.644 173.6851,24.099 173.2921,23.675 C172.8951,23.274 172.3481,23.06 171.7851,23.084 C171.2421,23.061 170.7161,23.272 170.3391,23.664 C169.9491,24.118 169.7521,24.706 169.7891,25.304 C169.7891,25.629 169.8271,25.954 169.9011,26.27 C169.9751,26.59 170.1001,27.027 170.2781,27.584 L170.4001,27.991 L174.0251,27.991 L174.0251,29.927 L170.8881,29.927 C170.9161,30.197 170.9291,30.395 170.9291,30.517 C170.9241,31.098 170.8031,31.672 170.5741,32.207" id="Fill-21" fill="#FF006E"></path>
                    </g>
                    <g id="Streaming" transform="translate(204.000000, 116.620000)">
                        <g id="Backer">
                            <use fill="black" fill-opacity="1" filter="url(#filter-6)" xlink:href="#path-5"></use>
                            <use fill="#FEFEFE" fill-rule="evenodd" xlink:href="#path-5"></use>
                        </g>
                        <path d="M47.4996,16.7465268 C47.9049333,16.7465268 48.2489333,16.6731934 48.5316,16.5265268 C48.8142667,16.3798601 49.0276,16.1851934 49.1716,15.9425268 C49.3156,15.6998601 49.3876,15.4345268 49.3876,15.1465268 C49.3876,14.7838601 49.3076,14.4905268 49.1476,14.2665268 C48.9876,14.0425268 48.7942667,13.8745268 48.5676,13.7625268 C48.3409333,13.6505268 48.0462667,13.5305268 47.6836,13.4025268 C47.4222667,13.3171934 47.2156,13.2398601 47.0636,13.1705268 C46.9116,13.1011934 46.7862667,13.0118601 46.6876,12.9025268 C46.5889333,12.7931934 46.5396,12.6558601 46.5396,12.4905268 C46.5396,12.2825268 46.6036,12.1238601 46.7316,12.0145268 C46.8596,11.9051934 47.0276,11.8505268 47.2356,11.8505268 C47.4756,11.8505268 47.6649333,11.9158601 47.8036,12.0465268 C47.9422667,12.1771934 48.0276,12.3438601 48.0596,12.5465268 L48.0596,12.5465268 L49.2756,12.5465268 C49.2276,12.0665268 49.0262667,11.6825268 48.6716,11.3945268 C48.3169333,11.1065268 47.8409333,10.9625268 47.2436,10.9625268 C46.6676,10.9625268 46.2049333,11.1025268 45.8556,11.3825268 C45.5062667,11.6625268 45.3316,12.0451934 45.3316,12.5305268 C45.3316,12.8825268 45.4102667,13.1678601 45.5676,13.3865268 C45.7249333,13.6051934 45.9156,13.7718601 46.1396,13.8865268 C46.3636,14.0011934 46.6516,14.1171934 47.0036,14.2345268 C47.2756,14.3251934 47.4889333,14.4051934 47.6436,14.4745268 C47.7982667,14.5438601 47.9262667,14.6358601 48.0276,14.7505268 C48.1289333,14.8651934 48.1796,15.0105268 48.1796,15.1865268 C48.1796,15.3838601 48.1169333,15.5451934 47.9916,15.6705268 C47.8662667,15.7958601 47.6862667,15.8585268 47.4516,15.8585268 C47.1902667,15.8585268 46.9809333,15.7825268 46.8236,15.6305268 C46.6662667,15.4785268 46.5742667,15.2878601 46.5476,15.0585268 L46.5476,15.0585268 L45.3476,15.0585268 C45.3742667,15.3998601 45.4822667,15.6985268 45.6716,15.9545268 C45.8609333,16.2105268 46.1129333,16.4065268 46.4276,16.5425268 C46.7422667,16.6785268 47.0996,16.7465268 47.4996,16.7465268 Z M52.5876,16.6905268 L52.5876,15.7225268 L52.1476,15.7225268 C51.9449333,15.7225268 51.8009333,15.6798601 51.7156,15.5945268 C51.6302667,15.5091934 51.5876,15.3598601 51.5876,15.1465268 L51.5876,15.1465268 L51.5876,13.2105268 L52.5796,13.2105268 L52.5796,12.2585268 L51.5876,12.2585268 L51.5876,11.1625268 L50.4596,11.1625268 L50.4596,12.2585268 L49.8436,12.2585268 L49.8436,13.2105268 L50.4596,13.2105268 L50.4596,15.1305268 C50.4596,15.6905268 50.5916,16.0905268 50.8556,16.3305268 C51.1196,16.5705268 51.4996,16.6905268 51.9956,16.6905268 L51.9956,16.6905268 L52.5876,16.6905268 Z M54.5236,16.6905268 L54.5236,14.5545268 C54.5236,13.7865268 54.9369333,13.4025268 55.7636,13.4025268 L55.7636,13.4025268 L56.0916,13.4025268 L56.0916,12.1945268 C55.7556,12.1945268 55.4516,12.2758601 55.1796,12.4385268 C54.9076,12.6011934 54.6889333,12.8238601 54.5236,13.1065268 L54.5236,13.1065268 L54.5236,12.2585268 L53.3956,12.2585268 L53.3956,16.6905268 L54.5236,16.6905268 Z M58.7076,16.7465268 C59.0756,16.7465268 59.4102667,16.6771934 59.7116,16.5385268 C60.0129333,16.3998601 60.2596,16.2078601 60.4516,15.9625268 C60.6436,15.7171934 60.7689333,15.4398601 60.8276,15.1305268 L60.8276,15.1305268 L59.6356,15.1305268 C59.5876,15.3491934 59.4769333,15.5225268 59.3036,15.6505268 C59.1302667,15.7785268 58.9129333,15.8425268 58.6516,15.8425268 C58.3582667,15.8425268 58.1129333,15.7491934 57.9156,15.5625268 C57.7182667,15.3758601 57.6116,15.0851934 57.5956,14.6905268 L57.5956,14.6905268 L60.8436,14.6905268 C60.8702667,14.5465268 60.8836,14.4185268 60.8836,14.3065268 C60.8836,13.9011934 60.7942667,13.5398601 60.6156,13.2225268 C60.4369333,12.9051934 60.1836,12.6558601 59.8556,12.4745268 C59.5276,12.2931934 59.1449333,12.2025268 58.7076,12.2025268 C58.2756,12.2025268 57.8916,12.2931934 57.5556,12.4745268 C57.2196,12.6558601 56.9582667,12.9185268 56.7716,13.2625268 C56.5849333,13.6065268 56.4916,14.0105268 56.4916,14.4745268 C56.4916,14.9385268 56.5849333,15.3411934 56.7716,15.6825268 C56.9582667,16.0238601 57.2196,16.2865268 57.5556,16.4705268 C57.8916,16.6545268 58.2756,16.7465268 58.7076,16.7465268 Z M59.7476,14.1945268 L57.5956,14.1945268 C57.6169333,13.8318601 57.7316,13.5571934 57.9396,13.3705268 C58.1476,13.1838601 58.4036,13.0905268 58.7076,13.0905268 C59.0062667,13.0905268 59.2582667,13.1838601 59.4636,13.3705268 C59.6689333,13.5571934 59.7636,13.8318601 59.7476,14.1945268 L59.7476,14.1945268 Z M63.4196,16.7465268 C63.7929333,16.7465268 64.1129333,16.6571934 64.3796,16.4785268 C64.6462667,16.2998601 64.8356,16.0611934 64.9476,15.7625268 L64.9476,15.7625268 L64.9476,16.6905268 L66.0676,16.6905268 L66.0676,12.2585268 L64.9476,12.2585268 L64.9476,13.1785268 C64.8356,12.8798601 64.6462667,12.6425268 64.3796,12.4665268 C64.1129333,12.2905268 63.7929333,12.2025268 63.4196,12.2025268 C63.0462667,12.2025268 62.7102667,12.2931934 62.4116,12.4745268 C62.1129333,12.6558601 61.8796,12.9185268 61.7116,13.2625268 C61.5436,13.6065268 61.4596,14.0105268 61.4596,14.4745268 C61.4596,14.9385268 61.5436,15.3425268 61.7116,15.6865268 C61.8796,16.0305268 62.1129333,16.2931934 62.4116,16.4745268 C62.7102667,16.6558601 63.0462667,16.7465268 63.4196,16.7465268 Z M63.7716,15.7545268 C63.4196,15.7545268 63.1369333,15.6411934 62.9236,15.4145268 C62.7102667,15.1878601 62.6036,14.8745268 62.6036,14.4745268 C62.6036,14.0745268 62.7102667,13.7598601 62.9236,13.5305268 C63.1369333,13.3011934 63.4196,13.1865268 63.7716,13.1865268 C64.1129333,13.1865268 64.3942667,13.3025268 64.6156,13.5345268 C64.8369333,13.7665268 64.9476,14.0798601 64.9476,14.4745268 C64.9476,14.8638601 64.8369333,15.1745268 64.6156,15.4065268 C64.3942667,15.6385268 64.1129333,15.7545268 63.7716,15.7545268 Z M68.2196,16.6905268 L68.2196,14.3385268 C68.2196,13.9598601 68.3129333,13.6718601 68.4996,13.4745268 C68.6862667,13.2771934 68.9369333,13.1785268 69.2516,13.1785268 C69.5556,13.1785268 69.7942667,13.2705268 69.9676,13.4545268 C70.1409333,13.6385268 70.2276,13.9011934 70.2276,14.2425268 L70.2276,14.2425268 L70.2276,16.6905268 L71.3476,16.6905268 L71.3476,14.3385268 C71.3476,13.9598601 71.4409333,13.6718601 71.6276,13.4745268 C71.8142667,13.2771934 72.0649333,13.1785268 72.3796,13.1785268 C72.6836,13.1785268 72.9222667,13.2705268 73.0956,13.4545268 C73.2689333,13.6385268 73.3556,13.9011934 73.3556,14.2425268 L73.3556,14.2425268 L73.3556,16.6905268 L74.4756,16.6905268 L74.4756,14.1145268 C74.4756,13.5011934 74.3196,13.0278601 74.0076,12.6945268 C73.6956,12.3611934 73.2702667,12.1945268 72.7316,12.1945268 C72.3902667,12.1945268 72.0822667,12.2838601 71.8076,12.4625268 C71.5329333,12.6411934 71.3262667,12.8825268 71.1876,13.1865268 C71.0542667,12.8665268 70.8556,12.6211934 70.5916,12.4505268 C70.3276,12.2798601 70.0169333,12.1945268 69.6596,12.1945268 C69.3236,12.1945268 69.0289333,12.2731934 68.7756,12.4305268 C68.5222667,12.5878601 68.3369333,12.8105268 68.2196,13.0985268 L68.2196,13.0985268 L68.2196,12.2585268 L67.0916,12.2585268 L67.0916,16.6905268 L68.2196,16.6905268 Z M76.0356,11.5945268 C76.2436,11.5945268 76.4116,11.5371934 76.5396,11.4225268 C76.6676,11.3078601 76.7316,11.1625268 76.7316,10.9865268 C76.7316,10.8051934 76.6676,10.6571934 76.5396,10.5425268 C76.4116,10.4278601 76.2436,10.3705268 76.0356,10.3705268 C75.8276,10.3705268 75.6596,10.4278601 75.5316,10.5425268 C75.4036,10.6571934 75.3396,10.8051934 75.3396,10.9865268 C75.3396,11.1625268 75.4036,11.3078601 75.5316,11.4225268 C75.6596,11.5371934 75.8276,11.5945268 76.0356,11.5945268 Z M76.5956,16.6905268 L76.5956,12.2585268 L75.4676,12.2585268 L75.4676,16.6905268 L76.5956,16.6905268 Z M78.7476,16.6905268 L78.7476,14.3385268 C78.7476,13.9491934 78.8436,13.6505268 79.0356,13.4425268 C79.2276,13.2345268 79.4836,13.1305268 79.8036,13.1305268 C80.1182667,13.1305268 80.3662667,13.2278601 80.5476,13.4225268 C80.7289333,13.6171934 80.8196,13.8905268 80.8196,14.2425268 L80.8196,14.2425268 L80.8196,16.6905268 L81.9396,16.6905268 L81.9396,14.1145268 C81.9396,13.5065268 81.7876,13.0345268 81.4836,12.6985268 C81.1796,12.3625268 80.7716,12.1945268 80.2596,12.1945268 C79.9076,12.1945268 79.5969333,12.2785268 79.3276,12.4465268 C79.0582667,12.6145268 78.8649333,12.8478601 78.7476,13.1465268 L78.7476,13.1465268 L78.7476,12.2585268 L77.6196,12.2585268 L77.6196,16.6905268 L78.7476,16.6905268 Z M85.1716,18.8665268 C85.6302667,18.8665268 86.0209333,18.7731934 86.3436,18.5865268 C86.6662667,18.3998601 86.9089333,18.1425268 87.0716,17.8145268 C87.2342667,17.4865268 87.3156,17.1171934 87.3156,16.7065268 L87.3156,16.7065268 L87.3156,12.2585268 L86.1956,12.2585268 L86.1956,13.1785268 C86.0836,12.8798601 85.8942667,12.6425268 85.6276,12.4665268 C85.3609333,12.2905268 85.0409333,12.2025268 84.6676,12.2025268 C84.2942667,12.2025268 83.9582667,12.2931934 83.6596,12.4745268 C83.3609333,12.6558601 83.1276,12.9185268 82.9596,13.2625268 C82.7916,13.6065268 82.7076,14.0105268 82.7076,14.4745268 C82.7076,14.9385268 82.7916,15.3425268 82.9596,15.6865268 C83.1276,16.0305268 83.3609333,16.2931934 83.6596,16.4745268 C83.9582667,16.6558601 84.2942667,16.7465268 84.6676,16.7465268 C85.0409333,16.7465268 85.3609333,16.6571934 85.6276,16.4785268 C85.8942667,16.2998601 86.0836,16.0611934 86.1956,15.7625268 L86.1956,15.7625268 L86.1956,16.7065268 C86.1956,17.1011934 86.0942667,17.3958601 85.8916,17.5905268 C85.6889333,17.7851934 85.4222667,17.8825268 85.0916,17.8825268 C84.8036,17.8825268 84.5676,17.8198601 84.3836,17.6945268 C84.1996,17.5691934 84.0756,17.3945268 84.0116,17.1705268 L84.0116,17.1705268 L82.8996,17.1705268 C82.9849333,17.6931934 83.2249333,18.1065268 83.6196,18.4105268 C84.0142667,18.7145268 84.5316,18.8665268 85.1716,18.8665268 Z M85.0196,15.7545268 C84.6676,15.7545268 84.3849333,15.6411934 84.1716,15.4145268 C83.9582667,15.1878601 83.8516,14.8745268 83.8516,14.4745268 C83.8516,14.0745268 83.9582667,13.7598601 84.1716,13.5305268 C84.3849333,13.3011934 84.6676,13.1865268 85.0196,13.1865268 C85.3609333,13.1865268 85.6422667,13.3025268 85.8636,13.5345268 C86.0849333,13.7665268 86.1956,14.0798601 86.1956,14.4745268 C86.1956,14.8638601 86.0849333,15.1745268 85.8636,15.4065268 C85.6422667,15.6385268 85.3609333,15.7545268 85.0196,15.7545268 Z M46.6356,27.6905268 L46.6356,25.4905268 L47.1316,25.4905268 L48.4516,27.6905268 L49.6996,27.6905268 L48.2916,25.4345268 C48.7396,25.3385268 49.0822667,25.1465268 49.3196,24.8585268 C49.5569333,24.5705268 49.6756,24.2131934 49.6756,23.7865268 C49.6756,23.2638601 49.5036,22.8425268 49.1596,22.5225268 C48.8156,22.2025268 48.3156,22.0425268 47.6596,22.0425268 L47.6596,22.0425268 L45.5076,22.0425268 L45.5076,27.6905268 L46.6356,27.6905268 Z M47.5636,24.7145268 L46.6356,24.7145268 L46.6356,22.9945268 L47.5636,22.9945268 C47.8942667,22.9945268 48.1382667,23.0705268 48.2956,23.2225268 C48.4529333,23.3745268 48.5316,23.5865268 48.5316,23.8585268 C48.5316,24.4291934 48.2089333,24.7145268 47.5636,24.7145268 L47.5636,24.7145268 Z M52.4836,27.7465268 C52.9156,27.7465268 53.3036,27.6545268 53.6476,27.4705268 C53.9916,27.2865268 54.2622667,27.0238601 54.4596,26.6825268 C54.6569333,26.3411934 54.7556,25.9385268 54.7556,25.4745268 C54.7556,25.0105268 54.6569333,24.6065268 54.4596,24.2625268 C54.2622667,23.9185268 53.9916,23.6558601 53.6476,23.4745268 C53.3036,23.2931934 52.9156,23.2025268 52.4836,23.2025268 C52.0516,23.2025268 51.6636,23.2931934 51.3196,23.4745268 C50.9756,23.6558601 50.7049333,23.9185268 50.5076,24.2625268 C50.3102667,24.6065268 50.2116,25.0105268 50.2116,25.4745268 C50.2116,25.9385268 50.3102667,26.3411934 50.5076,26.6825268 C50.7049333,27.0238601 50.9756,27.2865268 51.3196,27.4705268 C51.6636,27.6545268 52.0516,27.7465268 52.4836,27.7465268 Z M52.4836,26.7705268 C52.1689333,26.7705268 51.9022667,26.6598601 51.6836,26.4385268 C51.4649333,26.2171934 51.3556,25.8958601 51.3556,25.4745268 C51.3556,25.0531934 51.4649333,24.7318601 51.6836,24.5105268 C51.9022667,24.2891934 52.1689333,24.1785268 52.4836,24.1785268 C52.7982667,24.1785268 53.0649333,24.2891934 53.2836,24.5105268 C53.5022667,24.7318601 53.6116,25.0531934 53.6116,25.4745268 C53.6116,25.8958601 53.5022667,26.2171934 53.2836,26.4385268 C53.0649333,26.6598601 52.7982667,26.7705268 52.4836,26.7705268 Z M57.1716,29.8025268 L59.8836,23.2585268 L58.6436,23.2585268 L57.5236,26.2665268 L56.3156,23.2585268 L55.0596,23.2585268 L56.9236,27.5625268 L55.9236,29.8025268 L57.1716,29.8025268 Z M62.1476,27.7465268 C62.5209333,27.7465268 62.8409333,27.6571934 63.1076,27.4785268 C63.3742667,27.2998601 63.5636,27.0611934 63.6756,26.7625268 L63.6756,26.7625268 L63.6756,27.6905268 L64.7956,27.6905268 L64.7956,23.2585268 L63.6756,23.2585268 L63.6756,24.1785268 C63.5636,23.8798601 63.3742667,23.6425268 63.1076,23.4665268 C62.8409333,23.2905268 62.5209333,23.2025268 62.1476,23.2025268 C61.7742667,23.2025268 61.4382667,23.2931934 61.1396,23.4745268 C60.8409333,23.6558601 60.6076,23.9185268 60.4396,24.2625268 C60.2716,24.6065268 60.1876,25.0105268 60.1876,25.4745268 C60.1876,25.9385268 60.2716,26.3425268 60.4396,26.6865268 C60.6076,27.0305268 60.8409333,27.2931934 61.1396,27.4745268 C61.4382667,27.6558601 61.7742667,27.7465268 62.1476,27.7465268 Z M62.4996,26.7545268 C62.1476,26.7545268 61.8649333,26.6411934 61.6516,26.4145268 C61.4382667,26.1878601 61.3316,25.8745268 61.3316,25.4745268 C61.3316,25.0745268 61.4382667,24.7598601 61.6516,24.5305268 C61.8649333,24.3011934 62.1476,24.1865268 62.4996,24.1865268 C62.8409333,24.1865268 63.1222667,24.3025268 63.3436,24.5345268 C63.5649333,24.7665268 63.6756,25.0798601 63.6756,25.4745268 C63.6756,25.8638601 63.5649333,26.1745268 63.3436,26.4065268 C63.1222667,26.6385268 62.8409333,26.7545268 62.4996,26.7545268 Z M66.9476,27.6905268 L66.9476,21.7705268 L65.8196,21.7705268 L65.8196,27.6905268 L66.9476,27.6905268 Z M70.3396,27.6905268 L70.3396,26.7225268 L69.8996,26.7225268 C69.6969333,26.7225268 69.5529333,26.6798601 69.4676,26.5945268 C69.3822667,26.5091934 69.3396,26.3598601 69.3396,26.1465268 L69.3396,26.1465268 L69.3396,24.2105268 L70.3316,24.2105268 L70.3316,23.2585268 L69.3396,23.2585268 L69.3396,22.1625268 L68.2116,22.1625268 L68.2116,23.2585268 L67.5956,23.2585268 L67.5956,24.2105268 L68.2116,24.2105268 L68.2116,26.1305268 C68.2116,26.6905268 68.3436,27.0905268 68.6076,27.3305268 C68.8716,27.5705268 69.2516,27.6905268 69.7476,27.6905268 L69.7476,27.6905268 L70.3396,27.6905268 Z M71.7156,22.5945268 C71.9236,22.5945268 72.0916,22.5371934 72.2196,22.4225268 C72.3476,22.3078601 72.4116,22.1625268 72.4116,21.9865268 C72.4116,21.8051934 72.3476,21.6571934 72.2196,21.5425268 C72.0916,21.4278601 71.9236,21.3705268 71.7156,21.3705268 C71.5076,21.3705268 71.3396,21.4278601 71.2116,21.5425268 C71.0836,21.6571934 71.0196,21.8051934 71.0196,21.9865268 C71.0196,22.1625268 71.0836,22.3078601 71.2116,22.4225268 C71.3396,22.5371934 71.5076,22.5945268 71.7156,22.5945268 Z M72.2756,27.6905268 L72.2756,23.2585268 L71.1476,23.2585268 L71.1476,27.6905268 L72.2756,27.6905268 Z M75.2916,27.7465268 C75.6596,27.7465268 75.9942667,27.6771934 76.2956,27.5385268 C76.5969333,27.3998601 76.8436,27.2078601 77.0356,26.9625268 C77.2276,26.7171934 77.3529333,26.4398601 77.4116,26.1305268 L77.4116,26.1305268 L76.2196,26.1305268 C76.1716,26.3491934 76.0609333,26.5225268 75.8876,26.6505268 C75.7142667,26.7785268 75.4969333,26.8425268 75.2356,26.8425268 C74.9422667,26.8425268 74.6969333,26.7491934 74.4996,26.5625268 C74.3022667,26.3758601 74.1956,26.0851934 74.1796,25.6905268 L74.1796,25.6905268 L77.4276,25.6905268 C77.4542667,25.5465268 77.4676,25.4185268 77.4676,25.3065268 C77.4676,24.9011934 77.3782667,24.5398601 77.1996,24.2225268 C77.0209333,23.9051934 76.7676,23.6558601 76.4396,23.4745268 C76.1116,23.2931934 75.7289333,23.2025268 75.2916,23.2025268 C74.8596,23.2025268 74.4756,23.2931934 74.1396,23.4745268 C73.8036,23.6558601 73.5422667,23.9185268 73.3556,24.2625268 C73.1689333,24.6065268 73.0756,25.0105268 73.0756,25.4745268 C73.0756,25.9385268 73.1689333,26.3411934 73.3556,26.6825268 C73.5422667,27.0238601 73.8036,27.2865268 74.1396,27.4705268 C74.4756,27.6545268 74.8596,27.7465268 75.2916,27.7465268 Z M76.3316,25.1945268 L74.1796,25.1945268 C74.2009333,24.8318601 74.3156,24.5571934 74.5236,24.3705268 C74.7316,24.1838601 74.9876,24.0905268 75.2916,24.0905268 C75.5902667,24.0905268 75.8422667,24.1838601 76.0476,24.3705268 C76.2529333,24.5571934 76.3476,24.8318601 76.3316,25.1945268 L76.3316,25.1945268 Z M80.1156,27.7465268 C80.6169333,27.7465268 81.0156,27.6291934 81.3116,27.3945268 C81.6076,27.1598601 81.7556,26.8531934 81.7556,26.4745268 C81.7556,26.1705268 81.6796,25.9291934 81.5276,25.7505268 C81.3756,25.5718601 81.1942667,25.4411934 80.9836,25.3585268 C80.7729333,25.2758601 80.4996,25.1971934 80.1636,25.1225268 C79.9236,25.0638601 79.7396,25.0131934 79.6116,24.9705268 C79.4836,24.9278601 79.3769333,24.8691934 79.2916,24.7945268 C79.2062667,24.7198601 79.1636,24.6211934 79.1636,24.4985268 C79.1636,24.3438601 79.2169333,24.2211934 79.3236,24.1305268 C79.4302667,24.0398601 79.5796,23.9945268 79.7716,23.9945268 C80.0116,23.9945268 80.2062667,24.0585268 80.3556,24.1865268 C80.5049333,24.3145268 80.6009333,24.4851934 80.6436,24.6985268 L80.6436,24.6985268 L81.6996,24.6985268 C81.6196,24.2451934 81.4169333,23.8825268 81.0916,23.6105268 C80.7662667,23.3385268 80.3342667,23.2025268 79.7956,23.2025268 C79.2782667,23.2025268 78.8729333,23.3225268 78.5796,23.5625268 C78.2862667,23.8025268 78.1396,24.1145268 78.1396,24.4985268 C78.1396,24.7971934 78.2129333,25.0318601 78.3596,25.2025268 C78.5062667,25.3731934 78.6822667,25.4971934 78.8876,25.5745268 C79.0929333,25.6518601 79.3609333,25.7278601 79.6916,25.8025268 C79.9316,25.8611934 80.1169333,25.9118601 80.2476,25.9545268 C80.3782667,25.9971934 80.4876,26.0585268 80.5756,26.1385268 C80.6636,26.2185268 80.7076,26.3225268 80.7076,26.4505268 C80.7076,26.5998601 80.6569333,26.7211934 80.5556,26.8145268 C80.4542667,26.9078601 80.3076,26.9545268 80.1156,26.9545268 C79.8489333,26.9545268 79.6329333,26.8918601 79.4676,26.7665268 C79.3022667,26.6411934 79.2062667,26.4691934 79.1796,26.2505268 L79.1796,26.2505268 L78.0996,26.2505268 C78.1742667,26.7305268 78.3849333,27.0998601 78.7316,27.3585268 C79.0782667,27.6171934 79.5396,27.7465268 80.1156,27.7465268 Z" id="StreamingRoyalties" fill="#000000" fill-rule="nonzero"></path>
                        <path d="M144.976,22.488 C144.976,28.833 139.833,33.976 133.488,33.976 C127.143,33.976 122,28.833 122,22.488 C122,16.144 127.143,11 133.488,11 C139.833,11 144.976,16.144 144.976,22.488 Z" id="Fill-28" fill="#F6F7FF"></path>
                        <path d="M133.536,28.218 L133.536,27.098 L133.55,27.098 C134.296667,27.098 134.931333,26.9696667 135.454,26.713 C135.976667,26.4563333 136.368667,26.1156667 136.63,25.691 C136.891333,25.2663333 137.022,24.802 137.022,24.298 C137.022,23.6726667 136.875,23.1663333 136.581,22.779 C136.287,22.3916667 135.93,22.1 135.51,21.904 C135.09,21.708 134.548667,21.5073333 133.886,21.302 L133.886,21.302 L133.536,21.19 L133.536,18.53 C133.862667,18.5953333 134.126333,18.7376667 134.327,18.957 C134.527667,19.1763333 134.651333,19.44 134.698,19.748 L134.698,19.748 L136.826,19.748 C136.751333,18.9733333 136.427,18.3363333 135.853,17.837 C135.279,17.3376667 134.506667,17.0553333 133.536,16.99 L133.536,16.99 L133.536,15.8 L133.004,15.8 L133.004,16.976 C132.350667,16.9853333 131.765,17.102 131.247,17.326 C130.729,17.55 130.323,17.8673333 130.029,18.278 C129.735,18.6886667 129.588,19.1693333 129.588,19.72 C129.588,20.3546667 129.735,20.8656667 130.029,21.253 C130.323,21.6403333 130.677667,21.9296667 131.093,22.121 C131.508333,22.3123333 132.052,22.506 132.724,22.702 L132.724,22.702 L133.004,22.786 L133.004,25.53 C132.630667,25.4553333 132.332,25.2896667 132.108,25.033 C131.884,24.7763333 131.753333,24.48 131.716,24.144 L131.716,24.144 L129.616,24.144 C129.681333,24.9746667 130.019667,25.649 130.631,26.167 C131.242333,26.685 132.033333,26.986 133.004,27.07 L133.004,27.07 L133.004,28.218 L133.536,28.218 Z M133.004,21.008 C132.584,20.8493333 132.262,20.665 132.038,20.455 C131.814,20.245 131.702,19.972 131.702,19.636 C131.702,19.2813333 131.816333,19.006 132.045,18.81 C132.273667,18.614 132.593333,18.5066667 133.004,18.488 L133.004,18.488 L133.004,21.008 Z M133.536,25.586 L133.536,22.968 C133.974667,23.1173333 134.313,23.297 134.551,23.507 C134.789,23.717 134.908,23.9946667 134.908,24.34 C134.908,24.704 134.786667,25.0003333 134.544,25.229 C134.301333,25.4576667 133.965333,25.5766667 133.536,25.586 L133.536,25.586 Z" id="$" fill="#FF006E" fill-rule="nonzero"></path>
                        <path d="M29.4858174,20.9643041 C25.133353,18.3782878 17.956163,18.1425624 13.8016282,19.4037427 C13.1302586,19.5907316 12.4330288,19.197856 12.2460399,18.5254918 C12.0660134,17.8750092 12.4280557,17.1976718 13.0685921,16.9868121 C17.837803,15.5396375 25.7649377,15.8191262 30.7728579,18.793045 C31.3716201,19.1491196 31.5705445,19.9229352 31.2144699,20.5226921 C30.85939,21.122449 30.0845797,21.3193841 29.4848228,20.9643041 L29.4858174,20.9643041 Z M29.3425919,24.7916083 C29.0392323,25.2879246 28.390739,25.4430855 27.8954174,25.1387313 C23.7965814,22.8530907 18.9587416,22.2881456 14.4431592,23.5652398 C13.8861711,23.7343255 13.2993443,23.4210197 13.1302586,22.8640315 C12.9611729,22.308038 13.2754734,21.7202166 13.8314669,21.5511309 C18.9219406,20.084064 24.3883813,20.7295734 28.9964636,23.3414499 C29.4927798,23.6418257 29.6519193,24.2893244 29.3505489,24.7856406 C29.3485596,24.7896191 29.3465704,24.792603 29.3445812,24.7965814 L29.3425919,24.7916083 Z M27.6905253,28.4717085 C27.4488322,28.8685626 26.931629,28.9938849 26.5337803,28.7521919 C23.363921,26.8146688 19.3725042,26.3770353 14.6749061,27.4502321 C14.2193693,27.5427319 13.7747734,27.2493185 13.6822736,26.7937818 C13.5927577,26.354159 13.8642894,25.9205039 14.2999337,25.8101009 C19.4421278,24.6344581 23.8483018,25.1407205 27.4120312,27.3149635 C27.8078907,27.5566566 27.9342076,28.0728652 27.6935092,28.4697193 C27.6935092,28.4707139 27.6925146,28.4717085 27.6925146,28.4717085 L27.6905253,28.4717085 Z M21.5,9 C14.0443159,9 8,15.0443159 8,22.5 C8,29.9556841 14.0443159,36 21.5,36 C28.9556841,36 35,29.9556841 35,22.5 C35,15.0443159 28.9556841,9 21.5,9 L21.5,9 Z" id="Spotify" fill="#2D2A26"></path>
                    </g>
                    <g id="Ascap" transform="translate(35.232130, 97.310000)">
                        <path d="M132.63367,17.7933 C138.09367,17.7933 143.31767,22.0753 143.31767,29.9323 L143.31767,30.0113 C143.31767,37.8273 138.21067,42.1483 132.63367,42.1483 C129.78167,42.2053 127.07067,40.9073 125.32667,38.6483 L125.32667,48.7033 L118.68867,48.7033 L118.68867,18.2263 L125.32667,18.2263 L125.32667,21.6053 C126.95267,19.1703 129.70767,17.7343 132.63367,17.7933 Z M40.7157701,17.9923 C44.3687701,17.9923 46.9617701,18.9753 48.6507701,20.6233 C50.4177701,22.3923 51.2037701,24.9453 51.2037701,28.1233 L51.2037701,41.7553 L44.7617701,41.7553 L44.7617701,39.1993 C42.9617701,41.2133 40.3497701,42.3103 37.6517701,42.1863 C33.2127701,42.1093 29.5597701,39.6003 29.5597701,34.9593 L29.5597701,34.8813 C29.5597701,29.7753 33.4487701,27.3813 39.0267701,27.3813 C40.9827701,27.3593 42.9247701,27.6913 44.7617701,28.3633 L44.7617701,27.9703 C44.7617701,25.2203 43.0727701,23.6883 39.7337701,23.6883 C37.5127701,23.6883 35.3127701,24.1153 33.2527701,24.9453 L31.6027701,19.8773 C34.4577701,18.5653 37.5737701,17.9203 40.7157701,17.9923 Z M105.60787,17.9923 C109.26087,17.9923 111.85387,18.9753 113.54287,20.6233 C115.31087,22.3923 116.09587,24.9453 116.09587,28.1233 L116.09587,41.7553 L109.65387,41.7553 L109.65387,39.1993 C107.85387,41.2143 105.24187,42.3103 102.54387,42.1863 C98.1058701,42.1093 94.4518701,39.6003 94.4518701,34.9593 L94.4518701,34.8813 C94.4518701,29.7753 98.3408701,27.3813 103.91887,27.3813 C105.87387,27.3593 107.81687,27.6913 109.65387,28.3633 L109.65387,27.9703 C109.65387,25.2203 107.96487,23.6883 104.62587,23.6883 C102.40487,23.6883 100.20487,24.1153 98.1448701,24.9453 L96.4948701,19.8773 C99.3498701,18.5663 102.46587,17.9203 105.60787,17.9923 Z M84.3569701,17.7934 C88.7959701,17.7934 91.5459701,19.2864 93.7449701,21.7224 L89.6599701,26.0824 C88.3609701,24.4574 86.3979701,23.5044 84.3179701,23.4894 C80.9789701,23.4894 78.6179701,26.4364 78.6179701,29.8904 L78.6179701,29.9684 C78.6179701,33.5424 80.9359701,36.4494 84.5889701,36.4494 C86.8279701,36.4494 88.3599701,35.4684 89.9699701,33.9364 L93.8589701,37.8634 C89.3629701,43.0464 81.5179701,43.6034 76.3349701,39.1074 C73.7109701,36.8304 72.1599701,33.5594 72.0589701,30.0854 L72.0619701,30.0894 L72.0619701,30.0114 C71.9559701,23.3684 77.2539701,17.8994 83.8959701,17.7924 C84.0499701,17.7894 84.2039701,17.7905886 84.3569701,17.7934 Z M61.9280701,17.9088 C65.0460701,17.9628 68.0840701,18.9028 70.6870701,20.6198 L68.1340701,25.2198 C66.2290701,23.9688 64.0420701,23.2128 61.7710701,23.0198 C60.1600701,23.0198 59.3350701,23.7268 59.3350701,24.6298 L59.3350701,24.7088 C59.3350701,26.0098 61.5740701,26.6338 64.0880701,27.4978 C67.3880701,28.5978 71.1980701,30.1688 71.1980701,34.4498 L71.1980701,34.5288 C71.1980701,39.7528 67.3090701,42.1098 62.2420701,42.1098 C58.6000701,42.0928 55.0710701,40.8458 52.2250701,38.5738 L55.0540701,34.2148 C57.1750701,35.8708 59.7510701,36.8428 62.4380701,36.9998 C64.3630701,36.9998 65.2270701,36.2928 65.2270701,35.2318 L65.2270701,35.1528 C65.2270701,33.6998 62.9490701,33.2288 60.3570701,32.4428 C57.0570701,31.4608 53.3650701,29.9288 53.3650701,25.4118 L53.3650701,25.3328 C53.3650701,20.5798 57.2140701,17.9088 61.9280701,17.9088 Z M40.5977701,31.3853 C37.7697701,31.3853 35.9977701,32.5253 35.9977701,34.6073 L35.9977701,34.6853 C35.9977701,36.4913 37.4907701,37.5133 39.6517701,37.5133 C42.7587701,37.5133 44.8407701,35.8243 44.8407701,33.4283 L44.8407701,32.2493 C43.5017701,31.6723 42.0567701,31.3773 40.5977701,31.3853 Z M105.48987,31.3853 C102.66187,31.3853 100.89487,32.5253 100.89487,34.6073 L100.89487,34.6853 C100.89487,36.4913 102.38687,37.5133 104.54787,37.5133 C107.65087,37.5133 109.73287,35.8243 109.73287,33.4283 L109.73287,32.2493 C108.39387,31.6723 106.94887,31.3773 105.48987,31.3853 Z M130.94367,23.4503 C127.83967,23.4503 125.24367,26.0423 125.24367,29.9323 L125.24367,30.0113 C125.24367,33.8993 127.83567,36.4913 130.94367,36.4913 C134.05167,36.4913 136.67867,33.9393 136.67867,30.0113 L136.67867,29.9323 C136.67867,26.0423 134.04767,23.4503 130.94367,23.4503 Z" fill="#000000"></path>
                        <path d="M0.567870142,-5.68434189e-14 L12.0758701,36.092 C9.71887014,35.645 7.29387014,35.711 4.96587014,36.291 L4.96587014,36.291 C-0.886129858,38.142 0.0558701423,43.091 0.0558701423,43.091 L0.0558701423,43.091 C1.78487014,50.477 11.0938701,48.434 11.0938701,48.434 L11.0938701,48.434 C18.7148701,46.822 16.4358701,39.792 16.4358701,39.792 L16.4358701,39.792 L7.87287014,13.316 C11.6048701,13.67 16.5148701,17.087 16.5148701,17.087 L16.5148701,17.087 C22.8388701,22 22.8788701,26.2 22.8788701,26.2 L22.8788701,26.2 C23.4278701,30.758 20.1678701,36.531 20.1678701,36.531 L20.1678701,36.531 L21.9768701,36.531 C26.1798701,27.732 24.9228701,22.9 24.9228701,22.9 L24.9228701,22.9 C23.4688701,18.266 16.1228701,12.609 16.1228701,12.609 L16.1228701,12.609 C11.0948701,9.035 8.26687014,6.718 8.26687014,6.718 L8.26687014,6.718 C6.08187014,4.986 4.45587014,2.65 3.59287014,-5.68434189e-14 L3.59287014,-5.68434189e-14 L0.567870142,-5.68434189e-14 Z" id="Note" fill="url(#linearGradient-7)"></path>
                    </g>
                    <g id="Youtube" transform="translate(35.189800, 11.500000)">
                        <g id="Backer">
                            <use fill="black" fill-opacity="1" filter="url(#filter-9)" xlink:href="#path-8"></use>
                            <use fill="#FEFEFE" fill-rule="evenodd" xlink:href="#path-8"></use>
                        </g>
                        <path d="M27.6120345,25.8664098 L39.0551013,32.5159597 L27.6110118,39.1377088 L27.6110118,25.8664098 L27.6120345,25.8664098 Z M31.988197,17 C31.988197,17 18.2358582,17 14.7831999,17.9030126 C12.8993739,18.4538812 11.4307669,19.9427708 10.8969139,21.8435248 C10,25.3186302 10,32.5159597 10,32.5159597 C10,32.5159597 10,39.7400605 10.8969139,43.1605939 C11.4246306,45.0592885 12.8973285,46.5420002 14.7831999,47.0733052 C18.2604031,48 31.988197,48 31.988197,48 C31.988197,48 45.768149,48 49.2197846,47.0969874 C51.1097468,46.582157 52.5814219,45.0901784 53.0794802,43.1842761 C54,39.7369715 54,32.5396419 54,32.5396419 C54,32.5396419 54.0275294,25.3155412 53.0794802,21.8404358 C52.5793765,19.9417411 51.105656,18.4579998 49.2197846,17.9544956 C45.768149,17 31.988197,17 31.988197,17 L31.988197,17 Z" id="Icon-Youtube" fill="#FF0000"></path>
                    </g>
                </g>
            </g>
        </g>
    </g>
</svg>