<?xml version="1.0" encoding="UTF-8"?>
<svg width="80px" height="80px" viewBox="0 0 80 80" version="1.1" xmlns="http://www.w3.org/2000/svg" xmlns:xlink="http://www.w3.org/1999/xlink">
    <title>download</title>
    <g id="Page-1" stroke="none" stroke-width="1" fill="none" fill-rule="evenodd">
        <g id="Desktop-Publishing-1920" transform="translate(-920.000000, -6117.000000)" fill="#4870F6">
            <g id="Extra-Royalties" transform="translate(240.000000, 5868.000000)">
                <g id="Download" transform="translate(565.000000, 217.000000)">
                    <path d="M159.783508,65.4706953 C160.661819,65.4706953 161.376816,66.18563 161.376816,67.0648603 L161.376816,79.9735144 L179.505674,79.9735144 L179.512645,79.9496169 C186.365862,79.5572989 191.720373,74.0120741 191.811988,67.0748176 C191.811988,60.0340051 186.041225,54.3145273 178.949012,54.3145273 C175.517425,54.3145273 172.036047,55.6597596 168.880301,58.2058433 C168.594501,58.4378486 168.247957,58.5593277 167.881496,58.5593277 C167.396533,58.5593277 166.943436,58.3432542 166.639712,57.9658722 C166.088029,57.2828008 166.194581,56.2771127 166.878708,55.7254779 C169.391155,53.6304603 172.397529,52.1637488 175.582153,51.4776903 L176.451502,51.2894971 L176.170681,50.4461131 C173.959966,43.825499 168.688108,38.5541002 162.066917,36.3445735 C159.773549,35.5778608 157.394541,35.1895258 154.997608,35.1895258 C145.383986,35.1895258 136.876716,41.3212361 133.83051,50.4461131 L133.547698,51.2934801 L134.42103,51.4776903 C137.439353,52.1159537 140.185818,53.6095499 142.362675,55.7971705 C142.985061,56.4195022 142.985061,57.430169 142.363671,58.051505 C142.062934,58.3532115 141.662615,58.5194985 141.236405,58.5194985 C140.811191,58.5194985 140.410873,58.3532115 140.110136,58.051505 C137.750048,55.6796743 134.4758,54.319506 131.127861,54.319506 C124.00677,54.3185102 118.244969,60.0340051 118.187212,67.0578902 C118.280819,74.2181904 123.950008,79.8829029 131.094004,79.9705272 L148.629355,79.9705272 L148.629355,67.0648603 C148.629355,66.18563 149.345348,65.4706953 150.223659,65.4706953 L159.783508,65.4706953 Z M155.000596,107.736481 L166.169686,92.7198644 L159.779524,92.7188687 C158.900217,92.7188687 158.186216,92.003934 158.186216,91.1256994 L158.186216,68.6580296 L151.812984,68.6580296 L151.812984,91.1266952 C151.812984,92.0049297 151.097987,92.7198644 150.219676,92.7198644 L143.829514,92.7198644 L155.000596,107.736481 Z M154.996613,112.0002 C154.486754,112.0002 154.020711,111.766203 153.716987,111.356958 L139.377214,92.0756266 C139.173071,91.8018006 139.06154,91.4642479 139.06154,91.1247037 C139.06154,90.2454734 139.776537,89.5305387 140.654848,89.5305387 L148.622384,89.5305387 L148.622384,83.1588573 L131.095995,83.1588573 C122.275043,83.1060835 115.052378,75.884048 114.9996,67.0598816 C115.045408,58.6818026 121.383786,51.8530808 129.744671,51.1839497 L130.297349,51.1391418 L130.447718,50.6054301 C132.836684,42.1098549 139.599281,35.347847 148.095597,32.9590888 C150.358094,32.3228168 152.686316,32.0002 155.012546,32.0002 C166.380799,32.0002 176.470423,39.6503998 179.551482,50.6054301 L179.700855,51.1401375 L180.255525,51.1839497 C188.490936,51.830179 194.967734,58.8072647 194.9996,67.0678475 C194.947817,75.884048 187.726148,83.1060835 178.901213,83.159853 L161.379803,83.159853 L161.379803,89.5315344 L169.346344,89.5315344 C169.686913,89.5315344 170.025491,89.644052 170.298345,89.8471811 C170.639911,90.1010924 170.861978,90.4725 170.923719,90.8936941 C170.985459,91.3148883 170.878907,91.7350867 170.624973,92.0766223 L156.274246,111.356958 C156.181635,111.481424 156.0711,111.59195 155.945627,111.684553 C155.668789,111.891665 155.341165,112.0002 154.996613,112.0002 L154.996613,112.0002 Z" id="download"></path>
                </g>
            </g>
        </g>
    </g>
</svg>