<svg xmlns="http://www.w3.org/2000/svg" width="101.949" height="101.949" viewBox="0 0 101.949 101.949">
  <g id="Group_38" data-name="Group 38" transform="translate(577.97 -274)">
    <g id="Group_30" data-name="Group 30" transform="translate(-577.97 274)">
      <g id="Group_25" data-name="Group 25" transform="translate(0 0)">
        <rect id="Rectangle_2" data-name="Rectangle 2" width="101.949" height="101.949" rx="15" fill="red"/>
        <g id="XMLID_184_" transform="translate(20.286 29.155)">
          <path id="Path_10" data-name="Path 10" d="M60.648,10.36a7.785,7.785,0,0,0-5.477-5.513c-4.829-1.3-24.2-1.3-24.2-1.3s-19.37,0-24.2,1.3A7.782,7.782,0,0,0,1.3,10.36C0,15.222,0,25.366,0,25.366S0,35.509,1.3,40.371a7.785,7.785,0,0,0,5.477,5.513c4.829,1.3,24.2,1.3,24.2,1.3s19.37,0,24.2-1.3a7.79,7.79,0,0,0,5.477-5.513c1.293-4.863,1.293-15.006,1.293-15.006S61.943,15.222,60.648,10.36ZM24.638,34.577V16.154l16.188,9.211Z" transform="translate(0 -3.546)" fill="#fff"/>
        </g>
        <rect id="Rectangle_10" data-name="Rectangle 10" width="27" height="27" transform="translate(39.97 39)" fill="#fff"/>
      </g>
    </g>
    <g id="finger_print" data-name="finger print" transform="translate(-550.223 301.748)">
      <path id="Path_37" data-name="Path 37" d="M41.864,45.982a.663.663,0,0,0-.841.417c-.046.146-.1.292-.159.431a.663.663,0,0,0,.351.868.6.6,0,0,0,.258.053.663.663,0,0,0,.61-.4c.073-.179.139-.351.2-.523a.663.663,0,0,0-.417-.841Z" transform="translate(-11.746 -13.479)" fill="red"/>
      <path id="Path_38" data-name="Path 38" d="M43.106,26.769a8.56,8.56,0,0,0-2.591-6.155.665.665,0,1,0-.928.954,7.2,7.2,0,0,1,2.193,5.2V30.89a19.214,19.214,0,0,1-.663,5.042.663.663,0,0,0,.47.815h.172a.663.663,0,0,0,.663-.49,20.738,20.738,0,0,0,.663-5.387Z" transform="translate(-11.266 -4.868)" fill="red"/>
      <path id="Path_39" data-name="Path 39" d="M17.091,33.961a.663.663,0,0,0,.47-.192l.384-.391a5.142,5.142,0,0,0,1.511-3.644V25.612a7.288,7.288,0,0,1,10.435-6.579.663.663,0,1,0,.57-1.193,8.613,8.613,0,0,0-12.33,7.772v4.121A3.8,3.8,0,0,1,17,32.443l-.384.384a.663.663,0,0,0,.47,1.133Z" transform="translate(-3.517 -3.711)" fill="red"/>
      <path id="Path_40" data-name="Path 40" d="M38.922,32.663a.663.663,0,1,0-1.325,0V34.8a16.922,16.922,0,0,1-2.65,9.13.662.662,0,1,0,1.113.716A18.227,18.227,0,0,0,38.922,34.8Z" transform="translate(-9.732 -8.773)" fill="red"/>
      <path id="Path_41" data-name="Path 41" d="M23.656,29.417a.663.663,0,0,0,.663-.663V26.766a4.647,4.647,0,1,1,9.276-.576.668.668,0,0,0,1.325-.172,5.975,5.975,0,1,0-11.926.749v1.988A.663.663,0,0,0,23.656,29.417Z" transform="translate(-5.73 -4.865)" fill="red"/>
      <path id="Path_42" data-name="Path 42" d="M22.156,36a.663.663,0,0,0-.709.616,6.473,6.473,0,0,1-1.882,4.115l-.8.835a.663.663,0,1,0,.941.928l.828-.828a7.8,7.8,0,0,0,2.286-4.956A.663.663,0,0,0,22.156,36Z" transform="translate(-4.23 -10.122)" fill="red"/>
      <path id="Path_43" data-name="Path 43" d="M33.648,39.993a.663.663,0,0,0-.782.517,14.3,14.3,0,0,1-3.107,6.327.663.663,0,0,0,1.007.861,15.67,15.67,0,0,0,3.4-6.917.663.663,0,0,0-.517-.788Z" transform="translate(-7.963 -11.466)" fill="red"/>
      <path id="Path_44" data-name="Path 44" d="M26.876,28.313a1.988,1.988,0,1,1,3.975,0V32.9A.665.665,0,0,0,32.176,33V28.313a3.313,3.313,0,1,0-6.626,0v4.121a9.044,9.044,0,0,1-2.65,6.48.665.665,0,1,0,.941.941,10.4,10.4,0,0,0,3.035-7.421Z" transform="translate(-5.637 -6.411)" fill="red"/>
      <path id="Path_45" data-name="Path 45" d="M26.26,47.765c-.179.212-.371.411-.57.61a.665.665,0,1,0,.941.941c.225-.225.431-.451.663-.663a.663.663,0,0,0-1.007-.861Z" transform="translate(-6.578 -14.024)" fill="red"/>
      <path id="Path_46" data-name="Path 46" d="M29.375,40.721a13.053,13.053,0,0,0,1.988-6.937V29.663a.663.663,0,0,0-1.325,0v4.121a11.7,11.7,0,0,1-1.789,6.235.664.664,0,1,0,1.126.7Z" transform="translate(-7.474 -7.761)" fill="red"/>
      <path id="Path_47" data-name="Path 47" d="M18.455,18.428a.663.663,0,0,0,.934-.133,9.938,9.938,0,0,1,17.889,5.963v3.313a.663.663,0,1,0,1.325,0V24.259A11.264,11.264,0,0,0,18.322,17.5.663.663,0,0,0,18.455,18.428Z" transform="translate(-4.113 -2.357)" fill="red"/>
      <path id="Path_48" data-name="Path 48" d="M16.325,27.614a10.025,10.025,0,0,1,.762-3.83.663.663,0,0,0-1.219-.5A11.171,11.171,0,0,0,15,27.614v3.313a.663.663,0,0,0,1.325,0Z" transform="translate(-3.037 -5.712)" fill="red"/>
      <path id="Path_49" data-name="Path 49" d="M6.663,14.613a.663.663,0,0,0,.663-.663V7.325h6.626a.663.663,0,0,0,0-1.325H6.663A.663.663,0,0,0,6,6.663v7.288A.663.663,0,0,0,6.663,14.613Z" fill="red"/>
      <path id="Path_50" data-name="Path 50" d="M52.951,6H45.663a.663.663,0,0,0,0,1.325h6.626v6.626a.663.663,0,0,0,1.325,0V6.663A.663.663,0,0,0,52.951,6Z" transform="translate(-13.16)" fill="red"/>
      <path id="Path_51" data-name="Path 51" d="M52.951,45a.663.663,0,0,0-.663.663v6.626H45.663a.663.663,0,0,0,0,1.325h7.288a.663.663,0,0,0,.663-.663V45.663A.663.663,0,0,0,52.951,45Z" transform="translate(-13.16 -13.16)" fill="red"/>
      <path id="Path_52" data-name="Path 52" d="M13.951,52.288H7.325V45.663a.663.663,0,0,0-1.325,0v7.288a.663.663,0,0,0,.663.663h7.288a.663.663,0,0,0,0-1.325Z" transform="translate(0 -13.16)" fill="red"/>
    </g>
  </g>
</svg>
