<?xml version="1.0" encoding="UTF-8"?>
<svg width="90px" height="86px" viewBox="0 0 90 86" version="1.1" xmlns="http://www.w3.org/2000/svg" xmlns:xlink="http://www.w3.org/1999/xlink">
    <title>much-more</title>
    <g id="Page-1" stroke="none" stroke-width="1" fill="none" fill-rule="evenodd">
        <g id="Desktop-Publishing-1920" transform="translate(-1283.000000, -6485.000000)" fill="#FF5B8D">
            <g id="Extra-Royalties" transform="translate(240.000000, 5868.000000)">
                <g id="Much-more" transform="translate(935.000000, 587.000000)">
                    <path d="M149.215315,104.80378 L149.215315,93.8147915 L158.7303,99.3088038 L149.215315,104.80378 Z M161.309083,98.1259378 C161.100852,97.7653902 160.802002,97.4665406 160.441455,97.25831 L150.136928,91.3092751 C149.003228,90.6546981 147.553325,91.0441666 146.898748,92.1778669 C146.690518,92.5374505 146.581582,92.9461996 146.581582,93.3616969 L146.581582,105.261695 C146.582546,106.569885 147.643944,107.631283 148.953098,107.631283 C149.368595,107.631283 149.777345,107.520419 150.136928,107.314117 L160.441455,101.365082 C161.575155,100.709541 161.96366,99.2596382 161.309083,98.1259378 L161.309083,98.1259378 Z M138.508788,70.988467 L138.508788,67.6750927 C138.509751,66.9482133 137.921692,66.3572624 137.194813,66.3553331 C136.466969,66.3543703 135.876983,66.9424292 135.87505,67.6693085 L135.87505,70.9826828 C135.873126,71.7095621 136.461185,72.3005131 137.189029,72.3024459 C137.915908,72.3043692 138.507823,71.7153463 138.508788,70.988467 L138.508788,70.988467 Z M159.584432,70.988467 L159.584432,67.6750927 C159.585395,66.9482133 158.997336,66.3572624 158.270457,66.3553331 C157.542614,66.3543703 156.951663,66.9424292 156.950694,67.6693085 L156.950694,70.9826828 C156.948771,71.7095621 157.537794,72.3005131 158.264673,72.3024459 C158.992516,72.3043692 159.582503,71.7153463 159.584432,70.988467 L159.584432,70.988467 Z M164.853826,77.6325682 L164.853826,61.0309915 C164.854788,60.3041121 164.26673,59.7131612 163.538886,59.7121924 C162.812007,59.7102691 162.221056,60.298328 162.220087,61.0261713 L162.220087,77.627748 C162.218164,78.3546274 162.807187,78.9455783 163.534066,78.9475111 C164.260945,78.9494344 164.851896,78.3604115 164.853826,77.6325682 L164.853826,77.6325682 Z M154.315043,76.1518167 L154.315043,62.512707 C154.316966,61.7858277 153.727943,61.1948767 153.001064,61.1929475 C152.273221,61.1919846 151.683234,61.7800435 151.681301,62.5069228 L151.681301,76.1460325 C151.679378,76.8738758 152.268401,77.4648268 152.99528,77.4657956 C153.722159,77.4677189 154.314074,76.878696 154.315043,76.1518167 L154.315043,76.1518167 Z M149.04661,77.627748 L149.04661,61.0309915 C149.047573,60.3041121 148.459514,59.7131612 147.731671,59.7121924 C147.004792,59.7102691 146.413841,60.298328 146.412877,61.0261713 L146.412877,77.627748 C146.413841,78.3546274 147.004792,78.9436503 147.731671,78.9417269 C148.457586,78.9407582 149.044681,78.3536633 149.04661,77.627748 L149.04661,77.627748 Z M168.803459,64.5178914 C168.075616,64.5178914 167.486588,65.1078783 167.486588,65.8347576 L167.486588,72.8230179 C167.484665,73.5508612 168.073688,74.1408481 168.800567,74.1427774 C169.527446,74.1437402 170.118397,73.5556814 170.120325,72.828802 L170.120325,65.8347576 C170.120325,65.1078783 169.530338,64.5178914 168.803459,64.5178914 L168.803459,64.5178914 Z M142.46035,75.9811832 C143.187229,75.9811832 143.777216,75.3921603 143.777216,74.6643169 L143.777216,63.9944226 C143.775288,63.2675432 143.185301,62.6785203 142.457458,62.6804437 C141.732506,62.6823765 141.144448,63.2694713 141.143484,63.9944226 L141.143484,74.6643169 C141.143484,75.3921603 141.732506,75.9811832 142.46035,75.9811832 L142.46035,75.9811832 Z M195.363475,98.2907871 C195.360583,100.762562 193.357327,102.764855 190.886516,102.767747 L188.765648,102.767747 L188.765648,82.2126792 C188.765648,81.4857998 188.175661,80.8958129 187.448781,80.8958129 C186.720938,80.8958129 186.131915,81.4857998 186.131915,82.2126792 L186.131915,106.542892 C186.130951,107.357498 185.47059,108.017859 184.655984,108.017859 L178.92964,108.017859 C178.115998,108.016895 177.455637,107.356534 177.454673,106.542892 L177.454673,68.9456854 C177.455637,68.1310793 178.115998,67.4716821 178.92964,67.4707181 L184.65984,67.4707181 C185.474446,67.4716821 186.134807,68.1310793 186.135771,68.9456854 L186.135771,75.976363 C186.135771,76.7042064 186.725758,77.2932293 187.452638,77.2932293 C188.179517,77.2932293 188.769504,76.7042064 188.769504,75.976363 L188.769504,72.7169745 L190.890372,72.7169745 C193.361183,72.7198665 195.364439,74.7231228 195.367332,77.1939341 L195.363475,98.2907871 Z M128.542635,68.9418293 L128.542635,106.539036 C128.541671,107.353642 127.882274,108.013039 127.067668,108.014003 L121.336504,108.014003 C120.521898,108.013039 119.862501,107.353642 119.861537,106.539036 L119.861537,68.9418293 C119.862501,68.1281872 120.521898,67.467826 121.336504,67.466862 L127.066704,67.466862 C127.88131,67.467826 128.541671,68.1272232 128.542635,68.9418293 L128.542635,68.9418293 Z M117.23166,102.767747 L115.110792,102.767747 C112.639981,102.764855 110.636725,100.762562 110.633833,98.2907871 L110.633833,77.1948981 C110.635761,74.7231228 112.639017,72.7198665 115.110792,72.7169745 L117.23166,72.7169745 L117.23166,102.767747 Z M191.360819,70.1015585 L191.356963,70.1015585 L191.356963,68.3585906 C191.332862,47.1836511 174.173111,30.0239005 152.998172,29.9997958 C142.336954,29.9949796 132.157751,34.4372341 124.912095,42.257453 C124.40405,42.7780297 124.414655,43.6119165 124.935231,44.1199608 C125.455808,44.6280051 126.289695,44.6174008 126.797739,44.0968241 C126.8122,44.0813996 126.825696,44.0669391 126.840157,44.0505506 C140.255611,29.5949067 162.84864,28.7513796 177.304284,42.1658701 C184.583681,48.9208349 188.720338,58.4011151 188.72323,68.3306337 C188.417633,66.3225573 186.692017,64.8369856 184.65984,64.8340935 L181.30694,64.8340935 C179.348029,49.2004038 165.086156,38.1140481 149.452466,40.0719949 C136.507459,41.6934949 126.311868,51.8890861 124.690368,64.8340935 L121.336504,64.8340935 C119.305291,64.8369856 117.579675,66.3225573 117.274078,68.3306337 C117.270221,61.267179 119.373737,54.3637535 123.314695,48.5014814 C123.733085,47.9066743 123.589444,47.08532 122.994637,46.6669305 C122.39983,46.2485411 121.578476,46.3921817 121.160086,46.9869888 C121.149482,47.0024133 121.137914,47.0188018 121.128273,47.0342263 C116.890393,53.3380246 114.631669,60.7629909 114.641309,68.3585906 L114.641309,70.1015585 C110.906653,70.3522066 108.00492,73.4525301 108.0001,77.1948981 L108.0001,98.2907871 C108.003956,102.216321 111.185258,105.397623 115.110792,105.401479 L117.23166,105.401479 L117.23166,106.542892 C117.234552,108.809329 119.070067,110.647736 121.337468,110.651592 L127.067668,110.651592 C129.335069,110.6487 131.173476,108.811257 131.176368,106.542892 L131.176368,68.9456854 C131.173476,66.7852921 129.499918,64.9960507 127.345309,64.8475899 C129.285903,50.6792273 142.344666,40.7680252 156.512065,42.7086195 C168.023558,44.2857741 177.074845,53.3370606 178.651999,64.8475899 C176.496426,64.9960507 174.823832,66.7852921 174.82094,68.9456854 L174.82094,106.542892 C174.822868,108.811257 176.661275,110.6487 178.92964,110.651592 L184.65984,110.651592 C186.928205,110.6487 188.765648,108.811257 188.76854,106.542892 L188.76854,105.401479 L190.889408,105.401479 C194.814942,105.397623 197.996244,102.216321 198.0001,98.2907871 L198.0001,77.1948981 C197.99528,73.4525301 195.094511,70.3541346 191.360819,70.1015585 L191.360819,70.1015585 Z M152.998172,82.9626952 L152.998172,82.9626952 C143.969058,82.9704075 136.65592,90.2951145 136.662663,99.3232642 C136.67038,108.353342 143.995087,115.666481 153.024201,115.658775 C154.525197,115.657804 156.019445,115.449574 157.463563,115.040825 C158.159594,114.829702 158.552918,114.09511 158.341795,113.398116 C158.135493,112.720402 157.429822,112.327077 156.74536,112.507351 C149.454394,114.583874 141.861687,110.356598 139.785164,103.065632 C137.708641,95.7756304 141.935917,88.1819587 149.226883,86.1054361 C156.516885,84.0289134 164.110557,88.2561891 166.187079,95.547155 C167.686147,100.812692 165.913294,106.465769 161.675414,109.931461 C161.120133,110.401908 161.049758,111.231938 161.519241,111.78722 C161.97812,112.330934 162.785978,112.411912 163.343188,111.970386 C170.33434,106.256575 171.369709,95.9568682 165.656862,88.9657159 C162.551719,85.1664699 157.905089,82.9626952 152.998172,82.9626952 L152.998172,82.9626952 Z" id="much-more"></path>
                </g>
            </g>
        </g>
    </g>
</svg>