<svg xmlns="http://www.w3.org/2000/svg" xmlns:xlink="http://www.w3.org/1999/xlink" width="99" height="99" viewBox="0 0 99 99">
  <defs>
    <linearGradient id="linear-gradient" x1="0.5" x2="0.5" y2="1" gradientUnits="objectBoundingBox">
      <stop offset="0" stop-color="#fff"/>
      <stop offset="1" stop-color="#72efff"/>
    </linearGradient>
  </defs>
  <g id="Group_29" data-name="Group 29" transform="translate(0.176 0.235)">
    <g id="Group_10" data-name="Group 10" transform="translate(0 0)">
      <rect id="Rectangle_3" data-name="Rectangle 3" width="99" height="99" rx="15" transform="translate(-0.176 -0.235)" fill="#3d03ff"/>
    </g>
    <g id="Group_9" data-name="Group 9" transform="translate(23.979 21.737)">
      <path id="insurance" d="M22.279,61.763l-.958-.435A57.678,57.678,0,0,1-.24,44.379a14.46,14.46,0,0,1-3.092-8.933V0L.026,1.441a26.561,26.561,0,0,0,10.43,2.575C15.746,4.015,20.992.8,21.045.767L22.279,0l1.256.732C23.587.763,29.03,3.9,34.3,3.9A27.165,27.165,0,0,0,44.512,1.431L47.847.041V35.786a14.364,14.364,0,0,1-2.729,8.454A50.608,50.608,0,0,1,23.25,61.355ZM1.485,7.176v28.27a9.625,9.625,0,0,0,2.054,5.947A52.929,52.929,0,0,0,22.357,56.5,45.645,45.645,0,0,0,41.212,41.421a9.574,9.574,0,0,0,1.819-5.635V7.144A27.509,27.509,0,0,1,34.3,8.714,28.637,28.637,0,0,1,22.352,5.555a27.116,27.116,0,0,1-11.9,3.277A27.916,27.916,0,0,1,1.485,7.176ZM11.8,25.133,8.392,28.539Z" transform="translate(3.332)" fill="url(#linear-gradient)"/>
      <g id="musical-note" transform="translate(12.032 14.11)">
        <g id="Group_8" data-name="Group 8" transform="translate(0)">
          <path id="Path_17" data-name="Path 17" d="M26.121,4.554V19.533a4.927,4.927,0,1,0,1.651,3.688h0V11.183L42.434,7.467v8.09a4.927,4.927,0,1,0,1.652,3.678V0Z" transform="translate(-17.915)" fill="url(#linear-gradient)"/>
        </g>
      </g>
    </g>
  </g>
</svg>
