<?xml version="1.0" encoding="utf-8"?>
<!-- Generator: Adobe Illustrator 27.9.0, SVG Export Plug-In . SVG Version: 6.00 Build 0)  -->
<svg version="1.1" id="Layer_1" xmlns="http://www.w3.org/2000/svg" xmlns:xlink="http://www.w3.org/1999/xlink" x="0px" y="0px"
	 viewBox="0 0 104 104" style="enable-background:new 0 0 104 104;" xml:space="preserve">
<style type="text/css">
	.st0{fill:#242424;}
	.st1{fill:url(#SVGID_1_);}
	.st2{fill:url(#SVGID_00000005944892684967442930000018338564040093804216_);}
	.st3{fill:url(#SVGID_00000106838891339829251310000006783633726598487683_);}
</style>
<g id="Group_32" transform="translate(-0.118 0.235)">
	<g id="Group_6" transform="translate(0 0)">
		<path id="Rectangle_2" class="st0" d="M15.1-0.2h74c8.3,0,15,6.7,15,15v74c0,8.3-6.7,15-15,15h-74c-8.3,0-15-6.7-15-15v-74
			C0.1,6.5,6.8-0.2,15.1-0.2z"/>
	</g>
</g>
<g id="Layer_2_00000083066180248449941850000010899682562344187538_">
	<g id="Layer_2_copy_2_00000134948830320860260750000015344221232466981531_">
		<g id="_142_00000175282861660759169110000016462081440991712684_">
			<linearGradient id="SVGID_1_" gradientUnits="userSpaceOnUse" x1="-19.5171" y1="118.6891" x2="74.8015" y2="39.5464">
				<stop  offset="0" style="stop-color:#0027CF"/>
				<stop  offset="1" style="stop-color:#3FC5E4"/>
			</linearGradient>
			<path class="st1" d="M52,79.7c-9.9,0-19.1-5.2-24.2-13.7c3.7-2.7,4.4-7.9,1.7-11.5c-2.7-3.7-7.9-4.4-11.5-1.7
				c-3.7,2.7-4.5,7.9-1.7,11.5c1.9,2.6,5.1,3.8,8.2,3.2C33.3,82.7,52.8,87.9,68,79.1c7.4-4.3,12.7-11.4,14.9-19.6l-3.5-0.9
				C76.1,71,64.9,79.8,52,79.7L52,79.7z M18.3,59.4c0-2.5,2.1-4.6,4.6-4.6c2.5,0,4.6,2.1,4.6,4.6c0,2.5-2.1,4.6-4.6,4.6
				C20.4,64,18.3,62,18.3,59.4z"/>
			
				<linearGradient id="SVGID_00000134222362201380254000000017827234699567772823_" gradientUnits="userSpaceOnUse" x1="27.2862" y1="65.272" x2="119.0286" y2="-11.709">
				<stop  offset="0" style="stop-color:#0027CF"/>
				<stop  offset="1" style="stop-color:#3FC5E4"/>
			</linearGradient>
			<path style="fill:url(#SVGID_00000134222362201380254000000017827234699567772823_);" d="M80.8,36c-0.3,0-0.6,0-0.9,0.1
				c-8.6-15.4-28-20.9-43.3-12.3C28.9,28,23.3,35.2,21.2,43.6l3.5,0.9C28.6,29.4,44,20.3,59,24.2c7.3,1.9,13.5,6.6,17.3,13
				c-3.8,2.4-5,7.5-2.5,11.4c2.4,3.8,7.5,5,11.4,2.5s5-7.5,2.5-11.4C86.2,37.4,83.6,36,80.8,36L80.8,36z M80.8,48.8
				c-2.5,0-4.6-2.1-4.6-4.6c0-2.5,2.1-4.6,4.6-4.6c2.5,0,4.6,2.1,4.6,4.6C85.4,46.8,83.3,48.8,80.8,48.8z"/>
			
				<linearGradient id="SVGID_00000096042715160118358590000003644865917240793258_" gradientUnits="userSpaceOnUse" x1="18.0587" y1="74.1058" x2="73.3479" y2="27.7126">
				<stop  offset="0" style="stop-color:#0027CF"/>
				<stop  offset="1" style="stop-color:#3FC5E4"/>
			</linearGradient>
			<path style="fill:url(#SVGID_00000096042715160118358590000003644865917240793258_);" d="M41.4,38.2v26.7l23.1-13.4L41.4,38.2z
				 M45,44.5l12.2,7.1L45,58.6L45,44.5z"/>
		</g>
	</g>
</g>
</svg>
