<?xml version="1.0" encoding="UTF-8"?>
<svg width="90px" height="90px" viewBox="0 0 90 90" version="1.1" xmlns="http://www.w3.org/2000/svg" xmlns:xlink="http://www.w3.org/1999/xlink">
    <title>perfomance</title>
    <g id="Page-1" stroke="none" stroke-width="1" fill="none" fill-rule="evenodd">
        <g id="Desktop-Publishing-1920" transform="translate(-539.000000, -6470.000000)" fill="#9964E1">
            <g id="Extra-Royalties" transform="translate(240.000000, 5868.000000)">
                <g id="Performance" transform="translate(195.000000, 587.000000)">
                    <path d="M181.502771,89.4848023 C180.595298,89.4848023 179.860218,88.7506861 179.860218,87.8444021 C179.860218,86.938992 180.595298,86.2040018 181.502771,86.2040018 C182.410244,86.2040018 183.145324,86.938992 183.145324,87.8444021 C183.145324,88.7506861 182.410244,89.4848023 181.502771,89.4848023 L181.502771,89.4848023 Z M181.502771,84.068947 C179.41217,84.068947 177.717111,85.7609102 177.717111,87.8487718 C177.717111,89.9375074 179.41217,91.6294706 181.502771,91.6294706 C183.593373,91.6294706 185.288431,89.9375074 185.288431,87.8487718 C185.288431,85.7609102 183.593373,84.068947 181.502771,84.068947 L181.502771,84.068947 Z M116.503355,86.2040018 C117.410828,86.2040018 118.145907,86.938992 118.145907,87.8444021 C118.145907,88.7506861 117.410828,89.4848023 116.503355,89.4848023 C115.596756,89.4848023 114.860802,88.7506861 114.860802,87.8444021 C114.860802,86.938992 115.596756,86.2040018 116.503355,86.2040018 L116.503355,86.2040018 Z M116.503355,91.6294706 C118.593956,91.6294706 120.289015,89.9375074 120.289015,87.8487718 C120.289015,85.7609102 118.593956,84.068947 116.503355,84.068947 C114.412753,84.068947 112.717694,85.7609102 112.717694,87.8487718 C112.717694,89.9375074 114.412753,91.6294706 116.503355,91.6294706 L116.503355,91.6294706 Z M143.438773,28.0698593 C143.451899,28.040145 143.469401,28.0139266 143.491278,27.99033 L153.792894,17.2302831 C153.8419,17.1760983 153.911032,17.1446362 153.98454,17.1428835 C154.134181,17.1420143 154.256694,17.2626191 154.258445,17.4120642 C154.258445,17.449644 154.250569,17.4872237 154.235692,17.5213077 L150.425529,26.34556 C150.368648,26.4836438 150.435155,26.6418283 150.572545,26.698635 L150.583046,26.7021308 L157.607432,29.1867647 C157.748323,29.2339579 157.825331,29.3860249 157.778951,29.5276044 C157.7667,29.5634363 157.747448,29.5957724 157.72207,29.6237387 L157.722945,29.619369 L148.692842,40.0883912 C148.643836,40.1486936 148.570328,40.1827776 148.492445,40.1837278 C148.342804,40.1871474 148.219415,40.0700383 148.215915,39.9205932 C148.21504,39.8882572 148.219415,39.856795 148.229917,39.8270808 L150.839449,31.9335831 C150.883204,31.8033648 150.821947,31.6609113 150.696809,31.6032308 L143.578788,28.4220603 C143.442273,28.3635058 143.380141,28.2053212 143.438773,28.0698593 L143.438773,28.0698593 Z M142.703693,30.3805776 L148.274546,32.8704553 L146.197946,39.1628804 C145.779651,40.4257351 146.46485,41.78822 147.729362,42.206841 C148.657838,42.5135968 149.679074,42.2304376 150.316143,41.4902037 L159.346246,31.0159377 C159.866052,30.4137876 160.054198,29.5940245 159.849425,28.8249503 L159.8503,28.8249503 C159.645528,28.05675 159.074966,27.4388689 158.324135,27.1731887 L153.187329,25.3562509 L156.20378,18.3707851 C156.735838,17.1516277 156.177528,15.7323363 154.95677,15.200102 C154.02742,14.7963381 152.943177,15.015699 152.244852,15.7489413 L141.944111,26.5168538 C141.023511,27.4781965 141.05764,29.0032357 142.020244,29.9226289 C142.220641,30.1131495 142.451666,30.2687123 142.703693,30.3805776 L142.703693,30.3805776 Z M111.636077,56.1637895 C111.644828,56.1436887 111.65708,56.1253358 111.671956,56.1104787 L118.847734,48.6137533 C118.881862,48.5761736 118.930868,48.5542978 118.981623,48.5542978 C119.085759,48.552577 119.170643,48.635602 119.171519,48.7396018 C119.172394,48.7658203 119.167143,48.7911648 119.156642,48.8156353 L116.503355,54.9594893 C116.462225,55.0547496 116.506855,55.165741 116.60224,55.2059426 C116.606616,55.2076905 116.610116,55.2094384 116.613616,55.2103123 L121.498396,56.9416032 C121.595531,56.977435 121.646287,57.0840567 121.610408,57.1819389 C121.602532,57.2029136 121.591156,57.2230144 121.575404,57.2404934 L121.576279,57.2404934 L115.294849,64.5327149 C115.259845,64.5755384 115.207339,64.6000089 115.152208,64.5991576 C115.048947,64.6000089 114.963188,64.5169839 114.962313,64.413858 C114.962313,64.3920093 114.964938,64.3719085 114.971939,64.3518077 L116.789511,58.8546752 C116.820139,58.7637846 116.776384,58.6641546 116.688,58.6248269 L111.731463,56.4102428 C111.636952,56.3682933 111.594073,56.2581759 111.636077,56.1637895 L111.636077,56.1637895 Z M110.855493,58.3635165 L114.20098,59.8579674 L112.936468,63.6814896 C112.528674,64.8988991 113.18762,66.2176865 114.407502,66.6249463 C115.306225,66.9255844 116.298582,66.6511647 116.915524,65.9310316 L123.203955,58.6361882 C123.70451,58.0541389 123.884779,57.2623421 123.686133,56.5203603 C123.489236,55.7783785 122.937927,55.181472 122.213348,54.9245313 L119.292282,53.8915249 L121.116854,49.6651127 C121.622659,48.4835351 121.0731,47.1166805 119.889971,46.6115386 C119.000875,46.2322452 117.969138,46.4411188 117.297941,47.1359074 L110.122163,54.6308848 C109.233067,55.5607654 109.266321,57.0333677 110.196546,57.9212988 C110.389067,58.1057018 110.612216,58.2551469 110.855493,58.3635165 L110.855493,58.3635165 Z M178.174786,56.1637895 C178.183537,56.1436887 178.195788,56.1253358 178.210664,56.1104787 L185.386442,48.6137533 C185.420571,48.5761736 185.469576,48.5542978 185.520331,48.5542978 C185.624468,48.552577 185.709352,48.635602 185.711102,48.7396018 C185.711102,48.7658203 185.705851,48.7911648 185.69535,48.8156353 L183.042063,54.9594893 C183.000933,55.0547496 183.045563,55.165741 183.141824,55.2059426 C183.144449,55.2076905 183.148824,55.2094384 183.152325,55.2103123 L188.044105,56.9398553 C188.14124,56.9739392 188.193746,57.0805609 188.158742,57.1784431 C188.150866,57.2011657 188.138615,57.2212665 188.123738,57.2396194 L188.121113,57.2404934 L181.836182,64.5327149 C181.801178,64.5755384 181.748673,64.6000089 181.693542,64.5991576 C181.589406,64.6000089 181.504521,64.5169839 181.503646,64.413858 C181.503646,64.3920093 181.506272,64.3719085 181.513272,64.3518077 L183.329969,58.8546752 C183.360597,58.7637846 183.316843,58.6641546 183.228458,58.6248269 L178.270171,56.4102428 C178.175661,56.3682933 178.132781,56.2581759 178.174786,56.1637895 L178.174786,56.1637895 Z M177.392451,58.3626425 L180.737063,59.8570935 L179.473426,63.6806157 C179.067382,64.8988991 179.727204,66.2159386 180.947961,66.6223244 C181.846683,66.9212146 182.836416,66.646795 183.452482,65.9284098 L189.740039,58.6335664 C190.241468,58.0532649 190.423488,57.2623421 190.226591,56.5203603 L190.230967,56.5203603 C190.03407,55.7775045 189.481886,55.1805981 188.756432,54.9236574 L185.835365,53.8906509 L187.659938,49.6651127 C188.172744,48.4861569 187.631935,47.1158066 186.452307,46.6036731 C185.55446,46.2138923 184.509597,46.4253877 183.834899,47.1350334 L176.659121,54.6300109 C175.770025,55.5598915 175.803279,57.0324938 176.733504,57.9204249 C176.9269,58.1048279 177.149174,58.254273 177.392451,58.3626425 L177.392451,58.3626425 Z M171.146024,73.4155217 L171.146024,71.8896086 L190.727145,71.8896086 C191.350213,71.8904826 191.856018,72.3947505 191.856893,73.0178754 L191.858643,73.4155217 L171.146024,73.4155217 Z M190.728896,100.134732 L171.146024,100.134732 L171.146024,75.5540723 L191.858643,75.5540723 L191.858643,99.0064651 C191.857768,99.6278421 191.351963,100.133858 190.728896,100.134732 L190.728896,100.134732 Z M169.002917,48.1470651 L128.998833,48.1470651 L128.998833,47.3849825 C128.999708,46.772345 129.496762,46.2768166 130.110204,46.2750687 L167.893297,46.2750687 C168.506738,46.2768166 169.003792,46.772345 169.004667,47.3849825 L169.002917,48.1470651 Z M167.891547,102.864071 L130.108453,102.864071 C129.495012,102.863197 128.997958,102.365921 128.997083,101.753283 L128.997083,50.2847418 L169.002042,50.2847418 L169.002917,101.753283 C169.002042,102.365921 168.504988,102.863197 167.891547,102.864071 L167.891547,102.864071 Z M126.853976,73.4137738 L106.143107,73.4137738 L106.143107,73.0196233 C106.143982,72.3973724 106.648912,71.8922305 107.272855,71.8913565 L126.856601,71.8913565 L126.853976,73.4137738 Z M126.853976,100.132984 L107.272855,100.132984 C106.648912,100.13211 106.143982,99.6260942 106.143107,99.0047172 L106.143107,75.5540723 L126.855726,75.5540723 L126.853976,100.132984 Z M190.72627,69.7501841 L171.146024,69.7501841 L171.146024,47.377117 C171.144274,45.5829019 169.688116,44.1295265 167.891547,44.1269046 L130.108453,44.1269046 C128.311884,44.1295265 126.855726,45.5829019 126.853976,47.377117 L126.853976,69.7501841 L107.272855,69.7501841 C105.465784,69.7528059 104.00175,71.2149208 104,73.0187493 L104,99.0047172 C104.00175,100.808546 105.465784,102.270661 107.272855,102.272409 L126.909107,102.272409 C127.163759,103.842019 128.518406,104.99563 130.110204,105 L167.893297,105 C169.485094,104.99563 170.839741,103.842019 171.094394,102.272409 L190.727145,102.272409 C192.534216,102.270661 193.99825,100.808546 194,99.0047172 L194,73.0187493 C193.99825,71.2149208 192.533341,69.751932 190.72627,69.7501841 L190.72627,69.7501841 Z M116.503355,82.0020601 C119.73508,82.0020601 122.355113,84.6195342 122.355113,87.84615 C122.355113,91.0736397 119.73508,93.6902398 116.503355,93.6902398 C113.271629,93.6902398 110.651596,91.0736397 110.651596,87.84615 C110.651596,84.6195342 113.271629,82.0020601 116.503355,82.0020601 L116.503355,82.0020601 Z M116.503355,95.8305383 L116.506855,95.8305383 C120.922583,95.8305383 124.502596,92.2560912 124.502596,87.84615 C124.503471,83.4379566 120.926084,79.8635096 116.512105,79.8608863 C112.096377,79.8582659 108.515489,83.430965 108.512862,87.8409063 C108.510239,92.2508476 112.087626,95.8279164 116.503355,95.8305383 L116.503355,95.8305383 Z M187.34928,87.8470239 C187.34928,91.0745136 184.728371,93.6902398 181.496645,93.6902398 C178.26492,93.6902398 175.645762,91.0727657 175.645762,87.845276 C175.646637,84.6186603 178.266671,82.0011862 181.498396,82.0020599 C184.730121,82.0020599 187.34928,84.6195342 187.34928,87.84615 L187.34928,87.8470239 Z M181.496645,79.8608876 C177.080917,79.8617617 173.501779,83.4370827 173.502654,87.84615 C173.50353,92.2560912 177.082667,95.8305383 181.498396,95.8305383 C185.913249,95.8296643 189.491512,92.2552173 189.492387,87.84615 L189.492387,87.8444021 C189.491512,83.4353348 185.912374,79.8600138 181.496645,79.8608876 L181.496645,79.8608876 Z M160.875036,97.1414602 C158.891197,97.1414602 157.281897,95.5342699 157.281897,93.552156 C157.281897,91.5709161 158.891197,89.9637258 160.875036,89.9637258 C162.859751,89.9637258 164.468176,91.5709161 164.468176,93.552156 C164.468176,95.5342699 162.859751,97.1414602 160.875036,97.1414602 L160.875036,97.1414602 Z M160.875036,87.8243013 C157.707193,87.8243013 155.13879,90.3884645 155.13879,93.552156 C155.13879,96.7158475 157.707193,99.2808847 160.875036,99.2808847 C164.04288,99.2808847 166.611283,96.7158475 166.611283,93.552156 C166.611283,90.3884645 164.04288,87.8243013 160.875036,87.8243013 L160.875036,87.8243013 Z M160.875912,92.2289989 C160.143457,92.2289989 159.549268,92.8215356 159.549268,93.55303 C159.549268,94.2845244 160.143457,94.877935 160.875912,94.877935 C161.608366,94.877935 162.202555,94.2845244 162.202555,93.55303 C162.202555,92.8215356 161.608366,92.2289989 160.875912,92.2289989 L160.875912,92.2289989 Z M140.716353,93.5573997 C140.713727,95.5395136 139.102678,97.144082 137.117963,97.1414634 C135.133248,97.1379644 133.527449,95.5290263 133.530071,93.5469123 C133.533574,91.5656724 135.143749,89.961104 137.128464,89.9637226 L137.123213,89.9645998 C139.107928,89.9645998 140.716353,91.57179 140.716353,93.55303 L140.716353,93.5573997 Z M137.128464,87.8243013 C133.960621,87.8243013 131.392217,90.3884645 131.392217,93.552156 C131.392217,96.7158475 133.960621,99.2808847 137.128464,99.2808847 C140.296307,99.2808847 142.86471,96.7158475 142.86471,93.552156 C142.86471,90.3884645 140.296307,87.8243013 137.128464,87.8243013 L137.128464,87.8243013 Z M137.127589,92.2289989 C136.395134,92.2289989 135.800945,92.8215356 135.800945,93.55303 C135.800945,94.2845244 136.395134,94.877935 137.127589,94.877935 C137.860043,94.877935 138.454233,94.2845244 138.454233,93.55303 C138.454233,92.8215356 137.860043,92.2289989 137.127589,92.2289989 L137.127589,92.2289989 Z M149.000875,73.8752183 C147.324193,73.8752183 145.965171,72.5171032 145.965171,70.842619 C145.965171,69.1690087 147.324193,67.8108936 149.000875,67.8108936 C150.677557,67.8108936 152.036579,69.1690087 152.036579,70.842619 C152.036579,72.5171032 150.677557,73.8752183 149.000875,73.8752183 L149.000875,73.8752183 Z M149.000875,65.6714691 C146.141065,65.6714691 143.822939,67.9865572 143.822939,70.842619 C143.822939,73.6995548 146.141065,76.0137689 149.000875,76.0137689 C151.860685,76.0137689 154.178811,73.6995548 154.178811,70.842619 C154.178811,67.9865572 151.860685,65.6714691 149.000875,65.6714691 L149.000875,65.6714691 Z M149.000875,81.4855569 C143.116738,81.4855569 138.346596,76.7216667 138.346596,70.8443669 C138.346596,64.967941 143.116738,60.2040508 149.000875,60.2040508 L149.000875,60.2031769 L149.00175,60.2031769 C154.885888,60.2040508 159.656029,64.967941 159.655154,70.8443669 C159.655154,76.7216667 154.885013,81.4855569 149.000875,81.4855569 L149.000875,81.4855569 Z M149.002625,58.0663742 C141.93536,58.0663742 136.206114,63.7881113 136.205239,70.8452408 C136.204364,77.9032443 141.933609,83.6258554 149.000875,83.6258554 C156.069016,83.6258554 161.798261,77.9041183 161.798261,70.8452408 C161.797386,63.7881113 156.069891,58.0672481 149.002625,58.0663742 L149.002625,58.0663742 Z M149.00175,85.4244403 C140.939502,85.4244403 134.404294,78.8977971 134.404294,70.8461148 C134.404294,62.7944325 140.939502,56.2677893 149.00175,56.2677893 C157.063999,56.2677893 163.599207,62.7944325 163.599207,70.8461148 C163.599207,78.8977971 157.063999,85.4244403 149.00175,85.4244403 L149.00175,85.4244403 Z M165.742314,70.8452408 C165.742314,61.6119809 158.247127,54.1266169 149.00175,54.1266169 C139.756374,54.1266169 132.261187,61.6119809 132.261187,70.8452408 C132.261187,80.0785007 139.756374,87.5647387 149.00175,87.5647387 C158.247127,87.5647387 165.742314,80.0785007 165.742314,70.8452408 L165.742314,70.8452408 Z" id="perfomance"></path>
                </g>
            </g>
        </g>
    </g>
</svg>