<?xml version="1.0" encoding="utf-8"?>
<!-- Generator: Adobe Illustrator 27.0.0, SVG Export Plug-In . SVG Version: 6.00 Build 0)  -->
<svg version="1.1" id="Layer_1" xmlns="http://www.w3.org/2000/svg" xmlns:xlink="http://www.w3.org/1999/xlink" x="0px" y="0px"
	 viewBox="0 0 3359.8 1000" style="enable-background:new 0 0 3359.8 1000;" xml:space="preserve">
<style type="text/css">
	.st0{fill-rule:evenodd;clip-rule:evenodd;fill:#FFFFFF;}
	.st1{fill-rule:evenodd;clip-rule:evenodd;fill:#00FFA3;}
</style>
<g>
	<path class="st0" d="M242.7,683c0-121.9,0-243.5,0-365.9c1.7,0,3.4,0,5.2,0c38.5,0,77-0.2,115.5,0c34.2,0.2,67.3,6.1,98.1,21.6
		c52.1,26.2,81.5,69.2,90.8,126.1c6.1,37.1,3.6,73.9-10.3,109.1c-21,53.4-61,85.5-115.5,100.9c-20.5,5.8-41.5,8.3-62.7,8.3
		c-39,0-78,0-117,0C245.6,683.2,244.3,683.1,242.7,683z M319.2,607.1c11.5,0,22.6-0.1,33.8,0c15.9,0.2,31.6-0.4,47.1-4.1
		c28.3-6.7,51.5-20.6,65.8-46.9c11.3-20.7,13.8-43.2,12.5-66.3c-2.7-47.5-30-80.4-76.1-91.9c-27.1-6.7-54.6-4.5-82-4.5
		c-0.2,0-0.5,0.4-1,0.8C319.2,464.7,319.2,535.5,319.2,607.1z"/>
	<path class="st0" d="M1822.9,317.1c102.4,0,184.6,82,184.5,184.1c0,101.1-82.7,182.8-184.9,182.8c-101.7,0-184.1-82.2-184.1-183.6
		C1638.5,399.1,1721,317.1,1822.9,317.1z M1933.2,500.4c-0.1-60.4-49.3-109.4-110.1-109.5c-60.9-0.1-110.4,49.1-110.3,109.7
		c0.1,60.6,49.6,109.6,110.6,109.5C1884.1,610,1933.3,560.8,1933.2,500.4z"/>
	<path class="st0" d="M922.8,537.4c-49.2,0-97.4,0-146,0c0-25.4,0-50.3,0-75.8c48.5,0,96.8,0,145.8,0c0-48.3,0-96.1,0-144.1
		c25.7,0,50.9,0,76.7,0c0,47.9,0,95.7,0,144c48.9,0,97.3,0,146,0c0,25.5,0,50.4,0,76c-48.6,0-97,0-145.8,0c0,48.7,0,96.8,0,145.2
		c-25.7,0-50.9,0-76.6,0C922.8,634.3,922.8,586.2,922.8,537.4z"/>
	<path class="st0" d="M1566,537.5c-48.6,0-97,0-145.9,0c0,48.7,0,96.8,0,145.2c-25.6,0-50.7,0-76.4,0c0-48.2,0-96.4,0-145.1
		c-48.9,0-97.2,0-145.9,0c0-25.5,0-50.5,0-76c48.4,0,96.6,0,145.6,0c0-48.3,0-96.1,0-144.3c25.8,0,50.9,0,76.5,0
		c0,47.8,0,95.5,0,143.9c48.9,0,97.3,0,146.1,0C1566,486.9,1566,511.9,1566,537.5z"/>
	<path class="st0" d="M704.9,682.9c-25.3,0-50.3,0-75.6,0c0-121.8,0-243.5,0-365.5c25.1,0,50.2,0,75.6,0
		C704.9,439,704.9,560.7,704.9,682.9z"/>
</g>
<g>
	<path class="st1" d="M2593.1,431.4h-34.2v59.2h34.2c11,0,19-2.5,24.2-7.4c5.2-5,7.7-12.3,7.7-22c0-9.3-2.6-16.5-7.9-21.8
		C2611.8,434,2603.8,431.4,2593.1,431.4z"/>
	<path class="st1" d="M2387.3,429.4h-28.1v60.8h28.1c22.1,0,33.2-10,33.2-30.1C2420.5,439.7,2409.4,429.4,2387.3,429.4z"/>
	<path class="st1" d="M2933.6,269.2h-630.8c-101.3,0-183.4,82.1-183.4,183.4v94.8c0,101.3,82.1,183.4,183.4,183.4h630.8
		c101.3,0,183.4-82.1,183.4-183.4v-94.8C3117.1,351.3,3034.9,269.2,2933.6,269.2z M2467.1,499c-6.3,11.4-15.8,20.3-28.2,26.8
		c-12.5,6.5-27.6,9.8-45.5,9.8h-34.2v82h-55.2V383.8h89.3c27.1,0,47.7,6.9,61.9,20.7c14.2,13.8,21.3,32.3,21.3,55.7
		C2476.6,474.7,2473.5,487.7,2467.1,499z M2620.8,617.5l-49.3-88.3h-12.6v88.3h-55.2V383.8h94.2c18.1,0,33.3,3.2,45.8,9.6
		c12.5,6.4,21.8,15.2,28.1,26.3c6.2,11.1,9.4,23.9,9.4,38.2c0,17-4.6,31.4-13.7,43.3c-9.1,11.9-22.4,20.1-39.8,24.5l54.2,91.9
		H2620.8z M2917.1,561.7c-10.2,18.3-24.1,32.6-41.6,42.8c-17.5,10.2-36.9,15.4-58.2,15.4c-21.3,0-40.7-5.1-58.2-15.4
		c-17.5-10.2-31.4-24.5-41.6-42.8c-10.2-18.3-15.3-38.9-15.3-61.8c0-22.9,5.1-43.5,15.3-61.7c10.2-18.2,24.1-32.4,41.6-42.6
		c17.5-10.2,36.9-15.4,58.2-15.4c21.5,0,41,5.1,58.5,15.4c17.5,10.2,31.3,24.5,41.4,42.6c10.1,18.2,15.2,38.7,15.2,61.7
		C2932.4,522.8,2927.3,543.4,2917.1,561.7z"/>
	<path class="st1" d="M2817.2,432.7c-18.1,0-32.4,6-43.1,18c-10.6,12-16,28.4-16,49.1c0,20.5,5.3,36.8,16,48.9
		c10.6,12.1,25,18.2,43.1,18.2c17.8,0,32.1-6.1,42.9-18.2c10.8-12.1,16.1-28.4,16.1-48.9c0-20.5-5.3-36.8-16-48.9
		C2849.6,438.8,2835.3,432.7,2817.2,432.7z"/>
</g>
</svg>
