<?xml version="1.0" encoding="UTF-8"?>
<svg width="75px" height="75px" viewBox="0 0 75 75" version="1.1" xmlns="http://www.w3.org/2000/svg" xmlns:xlink="http://www.w3.org/1999/xlink">
    <title>streaming</title>
    <g id="Page-1" stroke="none" stroke-width="1" fill="none" fill-rule="evenodd">
        <g id="Desktop-Publishing-1920" transform="translate(-553.000000, -6115.000000)" fill="#0DB454">
            <g id="Extra-Royalties" transform="translate(240.000000, 5868.000000)">
                <g id="Streaming" transform="translate(195.000000, 217.000000)">
                    <path d="M120.205705,61.0879376 L120.205705,61.0879376 C118.988244,61.0879376 118,62.0713275 118,63.2850429 L118,71.7149571 C118,72.9286725 118.988244,73.9120624 120.205705,73.9120624 C121.424171,73.9120624 122.41141,72.9286725 122.41141,71.7149571 L122.41141,63.2850429 C122.41141,62.0713275 121.424171,61.0879376 120.205705,61.0879376 M129.02953,56.6937271 C127.811064,56.6937271 126.823825,57.677117 126.823825,58.8908324 L126.823825,76.110169 C126.823825,77.3238844 127.811064,78.3072743 129.02953,78.3072743 C130.247996,78.3072743 131.235235,77.3238844 131.235235,76.110169 L131.235235,58.8908324 C131.235235,57.677117 130.247996,56.6937271 129.02953,56.6937271 M137.85235,51.3041098 C136.633884,51.3041098 135.646645,52.2874997 135.646645,53.5012151 L135.646645,81.4987849 C135.646645,82.7125003 136.633884,83.6958902 137.85235,83.6958902 C139.070816,83.6958902 140.058055,82.7125003 140.058055,81.4987849 L140.058055,53.5012151 C140.058055,52.2874997 139.070816,51.3041098 137.85235,51.3041098 M146.676175,41.2929607 C145.458714,41.2929607 144.47047,42.2763506 144.47047,43.490066 L144.47047,91.509934 C144.47047,92.7236494 145.458714,93.7070393 146.676175,93.7070393 C147.894641,93.7070393 148.88188,92.7236494 148.88188,91.509934 L148.88188,43.490066 C148.88188,42.2763506 147.894641,41.2929607 146.676175,41.2929607 M190.794295,61.0879376 C189.575829,61.0879376 188.58859,62.0713275 188.58859,63.2850429 L188.58859,71.7149571 C188.58859,72.9286725 189.575829,73.9120624 190.794295,73.9120624 C192.012761,73.9120624 193,72.9286725 193,71.7149571 L193,63.2850429 C193,62.0713275 192.012761,61.0879376 190.794295,61.0879376 M181.97047,56.6937271 C180.752004,56.6937271 179.76577,57.677117 179.76577,58.8908324 L179.76577,76.110169 C179.76577,77.3238844 180.752004,78.3072743 181.97047,78.3072743 C183.188936,78.3072743 184.176175,77.3238844 184.176175,76.110169 L184.176175,58.8908324 C184.176175,57.677117 183.188936,56.6937271 181.97047,56.6937271 M173.146645,51.3041098 C171.929184,51.3041098 170.94094,52.2874997 170.94094,53.5012151 L170.94094,81.4987849 C170.94094,82.7125003 171.929184,83.6958902 173.146645,83.6958902 C174.365111,83.6958902 175.35235,82.7125003 175.35235,81.4987849 L175.35235,53.5012151 C175.35235,52.2874997 174.365111,51.3041098 173.146645,51.3041098 M164.323825,41.2929607 C163.105359,41.2929607 162.11812,42.2763506 162.11812,43.490066 L162.11812,91.509934 C162.11812,92.7236494 163.105359,93.7070393 164.323825,93.7070393 C165.542291,93.7070393 166.530535,92.7236494 166.530535,91.509934 L166.530535,43.490066 C166.530535,42.2763506 165.542291,41.2929607 164.323825,41.2929607 M155.5,30 C154.282539,30 153.294295,30.9833899 153.294295,32.1971052 L153.294295,102.802895 C153.294295,104.01661 154.282539,105 155.5,105 C156.718466,105 157.705705,104.01661 157.705705,102.802895 L157.705705,32.1971052 C157.705705,30.9833899 156.718466,30 155.5,30" id="streaming"></path>
                </g>
            </g>
        </g>
    </g>
</svg>