<?xml version="1.0" encoding="UTF-8"?>
<svg width="80px" height="89px" viewBox="0 0 80 89" version="1.1" xmlns="http://www.w3.org/2000/svg" xmlns:xlink="http://www.w3.org/1999/xlink">
    <title>net</title>
    <g id="Page-1" stroke="none" stroke-width="1" fill="none" fill-rule="evenodd">
        <g id="Desktop-Publishing-1920" transform="translate(-920.000000, -6487.000000)" fill="#FF5800">
            <g id="Extra-Royalties" transform="translate(240.000000, 5868.000000)">
                <g id="Neighbouring" transform="translate(565.000000, 587.000000)">
                    <path d="M182.938671,49.5280922 C182.915957,50.4771577 183.666519,51.2652474 184.615584,51.2889494 C185.565637,51.3116637 186.353727,50.5601145 186.376441,49.611049 C186.376441,49.5833967 186.376441,49.5557444 186.376441,49.5280922 C186.368541,44.6040125 182.37575,40.6161597 177.45167,40.613197 C176.501617,40.6359113 175.751055,41.4240011 175.77377,42.3730666 C175.795497,43.2905295 176.534207,44.0292402 177.45167,44.050967 C180.477619,44.0519546 182.932746,46.5021435 182.938671,49.5280922 L182.938671,49.5280922 Z M177.45167,32.0005016 C176.501617,31.9777872 175.714515,32.7293365 175.691801,33.678402 C175.669086,34.6274675 176.419648,35.4155573 177.368713,35.4382717 C177.396366,35.4392592 177.424018,35.4392592 177.45167,35.4382717 C185.234797,35.4412344 191.547416,41.744965 191.56223,49.5280922 C191.584944,50.4771577 192.373034,51.2287069 193.3221,51.2059926 C194.239563,51.1832782 194.977286,50.4455551 195,49.5280922 C194.983211,39.846834 187.132928,32.0054395 177.45167,32.0005016 L177.45167,32.0005016 Z M179.936424,91.4884408 L133.211984,44.7620254 C134.201541,43.2342374 135.313557,41.7884186 136.536183,40.4393827 L184.25808,88.1662177 C182.909044,89.3878556 181.463225,90.4988844 179.936424,91.4884408 L179.936424,91.4884408 Z M161.63062,96.8934748 L161.628645,96.8934748 C142.950522,96.8895222 127.81189,81.744965 127.81584,63.0658548 C127.816828,57.781308 129.05723,52.5698422 131.436313,47.8501918 L176.848258,93.2601614 C172.131571,95.6501078 166.91813,96.8954477 161.63062,96.8934748 L161.63062,96.8934748 Z M137.136632,105.828119 L139.822853,93.2809006 C145.292077,97.2332004 151.733082,99.6221593 158.456534,100.193969 L159.662371,105.823181 L137.136632,105.828119 Z M165.46046,56.8036026 L161.608893,60.6551692 L156.658149,55.7044248 L165.46046,56.8036026 Z M167.892872,59.236015 L168.993038,68.0363508 L164.041306,63.0875816 L167.892872,59.236015 Z M170.528726,49.8688077 L170.54354,49.8539939 C171.729625,48.6669214 173.654421,48.667909 174.840506,49.8549815 C176.027578,51.0410665 176.026591,52.9648746 174.840506,54.1519472 C173.653433,55.3380322 171.729625,55.3380322 170.54354,54.1519472 C169.356467,52.9727753 169.350542,51.0548926 170.528726,49.8688077 L170.528726,49.8688077 Z M187.935832,86.9840831 L172.951263,71.9975389 L171.24176,58.3155894 C171.717774,58.4242233 172.204652,58.4795279 172.693504,58.4795279 C176.269536,58.4795279 179.169074,55.5799895 179.169074,52.0039581 C179.168086,48.4269392 176.269536,45.5283884 172.692517,45.5283884 C169.116485,45.5283884 166.216947,48.4279267 166.216947,52.0039581 C166.216947,52.4928108 166.273239,52.9816635 166.382861,53.4576776 L152.700911,51.747187 L137.72128,36.762618 C137.049725,36.0920504 135.962398,36.0920504 135.290843,36.762618 L135.290843,36.762618 C133.080636,38.9708495 131.15584,41.4457279 129.562872,44.1329362 L129.562872,44.1388617 C120.904748,58.7659264 123.262104,77.4025706 135.290843,89.4125452 C135.792534,89.9142364 136.305089,90.3991387 136.829494,90.8672522 L133.620843,105.827132 L121.671111,105.827132 C117.988421,105.83207 115.00395,108.815552 115,112.498243 L115,118.290406 C115,119.240459 115.769326,120.009785 116.719379,120.009785 L140.917093,120.009785 C141.866158,120.032499 142.654248,119.281938 142.676962,118.331884 C142.699677,117.382819 141.949115,116.594729 140.999062,116.572015 L140.917093,116.572015 L118.434807,116.572015 L118.434807,112.49923 C118.435795,110.713683 119.882601,109.265889 121.668148,109.264902 L175.707602,109.264902 C177.492161,109.266877 178.938967,110.713683 178.940943,112.498243 L178.940943,116.573002 L156.458657,116.573002 C155.509592,116.595717 154.758043,117.383807 154.780757,118.332872 C154.802484,119.250335 155.541194,119.989046 156.458657,120.010772 L180.660321,120.010772 C181.609387,120.010772 182.3797,119.241447 182.3797,118.291394 L182.3797,112.49923 C182.374762,108.81654 179.39128,105.833057 175.708589,105.828119 L163.17816,105.828119 L162.000963,100.330255 C171.742464,100.229522 181.054366,96.309812 187.935832,89.4145203 C188.6064,88.7439527 188.607387,87.6546507 187.935832,86.9850707 L187.935832,86.9840831 Z M148.062242,116.703363 C147.18527,117.066793 146.768511,118.071163 147.131941,118.948135 C147.494383,119.825107 148.499741,120.241866 149.376713,119.878437 C149.480409,119.834983 149.579167,119.782641 149.672987,119.720424 C150.34948,119.261198 150.61514,118.391139 150.307014,117.633665 C149.943584,116.756693 148.938227,116.339933 148.062242,116.703363 L148.062242,116.703363 Z" id="net"></path>
                </g>
            </g>
        </g>
    </g>
</svg>