<?xml version="1.0" encoding="UTF-8"?>
<svg width="80px" height="56px" viewBox="0 0 80 56" version="1.1" xmlns="http://www.w3.org/2000/svg" xmlns:xlink="http://www.w3.org/1999/xlink">
    <title>youtube</title>
    <g id="Page-1" stroke="none" stroke-width="1" fill="none" fill-rule="evenodd">
        <g id="Desktop-Publishing-1920" transform="translate(-1290.000000, -6132.000000)">
            <g id="Extra-Royalties" transform="translate(240.000000, 5868.000000)">
                <g id="Youtube" transform="translate(935.000000, 217.000000)">
                    <g id="youtube" transform="translate(115.000000, 47.000000)">
                        <path d="M77.5651368,8.67376842 C76.6421895,5.27334737 73.9861895,2.61818947 70.5857684,1.69608421 C64.3887158,8.42105257e-05 39.5971368,8.42105257e-05 39.5971368,8.42105257e-05 C39.5971368,8.42105257e-05 14.8089263,8.42105257e-05 8.60766316,1.63124211 C5.21397895,2.60218947 2.56976842,5.26997895 1.63166316,8.67376842 C0.000505263158,14.8733474 0.000505263158,27.7255579 0.000505263158,27.7255579 C0.000505263158,27.7255579 0.000505263158,40.6417684 1.63166316,46.7739789 C2.55376842,50.1752421 5.21061053,52.8320842 8.61103158,53.7541895 C14.8737684,55.4501895 39.6005053,55.4501895 39.6005053,55.4501895 C39.6005053,55.4501895 64.3895579,55.4501895 70.5908211,53.8190316 C73.9912421,52.8969263 76.6480842,50.2400842 77.5710316,46.8388211 C79.1966461,40.6417684 79.1966461,27.7895579 79.1966461,27.7895579 C79.1966461,27.7895579 79.2628211,14.8733474 77.5651368,8.67376842" id="Fill-1" fill="#FF5C5C"></path>
                        <polygon id="Fill-4" fill="#FFFFFF" points="31.7049263 39.5984842 52.3188211 27.7248 31.7049263 15.8511158"></polygon>
                    </g>
                </g>
            </g>
        </g>
    </g>
</svg>